<?xml version="1.0" standalone="no"?>
<!DOCTYPE svg PUBLIC "-//W3C//DTD SVG 20010904//EN"
 "http://www.w3.org/TR/2001/REC-SVG-20010904/DTD/svg10.dtd">
<svg version="1.0" xmlns="http://www.w3.org/2000/svg"
 width="260.000000pt" height="260.000000pt" viewBox="0 0 260.000000 260.000000"
 preserveAspectRatio="xMidYMid meet">
<metadata>
Created by potrace 1.11, written by Peter Selinger 2001-2013
</metadata>
<g transform="translate(0.000000,260.000000) scale(0.100000,-0.100000)"
fill="#000000" stroke="none">
<path d="M1070 2445 c-8 -2 -49 -9 -90 -15 -262 -43 -483 -192 -599 -403 -58
-105 -82 -205 -86 -352 -6 -246 40 -470 145 -710 49 -112 52 -125 51 -195 0
-41 -3 -86 -6 -99 -2 -14 -7 -61 -11 -105 -3 -45 -8 -83 -9 -86 -6 -9 -20
-172 -20 -222 0 -39 5 -53 28 -75 l27 -28 513 -3 c463 -3 515 -2 544 14 49 26
61 64 49 166 -8 65 -7 85 4 81 3 -1 35 -4 70 -8 36 -3 81 -8 100 -10 152 -20
205 -12 258 38 47 44 54 79 55 282 l2 190 25 11 c14 7 50 14 80 17 43 5 60 12
78 33 29 33 32 20 -85 367 -52 155 -96 302 -99 327 -5 50 -16 130 -20 145 -2
6 -5 19 -8 30 -49 194 -186 372 -371 484 -62 38 -209 96 -265 105 -19 3 -46 8
-60 12 -27 6 -276 14 -300 9z"/>
</g>
</svg>
