<svg width="350" height="394" viewBox="0 0 350 394" xmlns="http://www.w3.org/2000/svg"><title>Brain</title><g id="Page-1" fill="#1A1918" fill-rule="evenodd"><path d="M156.203 112.418c.702.058 1.103.578 1.107 1.436.004.677-.386 1.2-.852 1.142-.786-.097-1.412-.85-1.432-1.72-.01-.458.606-.906 1.177-.858zm-2.005 6.753c1.514.29 3.05.22 4.422-.62.693-.425 1.517-.835 1.936-1.478 1.31-2.012 1.295-4.192.231-6.313-.973-1.938-2.647-2.744-4.784-2.677-.691.055-1.38.105-2.069.165-1.564.138-2.55.986-2.96 2.482-.753 2.729-.049 5.203 1.501 7.441.347.502 1.098.88 1.723 1zm-9.536 30.202c-.148.804-.866 1.488-1.753 1.524a5.84 5.84 0 0 1-2.017-.273c-.494-.16-.996-.585-.746-1.238.392-1.035.79-2.079 1.337-3.033.232-.403.893-.868 1.272-.803.612.102 1.272.52 1.685.998.314.367.278 1.035.357 1.393-.055.607-.062 1.027-.135 1.432zm3.518-2.243c-.188-2.922-1.6-4.639-4.612-5.623-2.742-.897-4.082-.465-6.113 1.966-.176.213-.36.423-.52.646-3.103 4.392-.918 9.794 4.35 10.757 3.704.676 6.559-1.5 6.886-5.267.035-.41.005-.826.005-1.239h.008c0-.412.023-.827-.004-1.24zm-21.594 15.98c-.712.702-2.34.457-2.935-.444-.589-.892-.56-2.273.163-3.111.234-.272.707-.342.93-.442 1.062.072 1.788.403 2.163 1.267.403.929.249 2.166-.321 2.73zm1.554-7.73c-1.69-1.275-3.581-1.354-5.54-1.262-1.89.087-3.102 1.17-3.689 2.869-.595 1.716-.683 3.478-.239 5.307.885 3.654 3.083 5.53 6.72 5.513 2.995-.014 4.864-1.227 5.554-4 .86-3.456.385-6.02-2.806-8.426zm75.15 9.025c-1.385.087-2.78.015-4.171.015-.007-.08-.011-.16-.018-.238-2.205.218-4.408.563-6.62.63-5 .163-9.938 1.272-14.963.933-.19-.012-.382-.235-.524-.402-.039-.046.071-.265.159-.36.275-.31.57-.603.865-.894.594-.587 1.198-1.162 1.788-1.75 1.622-1.62 2.029-3.579 1.576-5.772-.519-2.507-2.413-4.047-5.002-4.16-2.183-.095-4.11.78-5.887 1.786-1.64.928-2.375 2.666-2.499 4.577-.138 2.129.172 4.151 1.268 6.032.41.703.229 1.044-.484 1.126-2.463.295-4.93.558-7.398.816-2.206.23-4.414.444-6.623.647-.691.063-1.492.305-2.063.055-1.83-.802-3.548-.042-5.292.175-3.437.428-6.862.951-10.288 1.459-4.805.713-9.626 1.355-14.406 2.213-2.314.415-4.404-.09-6.498-.835-1.363-.483-1.67-.966-1.02-2.441.898-2.036-1.28-4.035-3.127-3.607-.536.125-1.057.303-1.593.42-.094.022-.267-.11-.327-.215-.036-.064.042-.255.122-.315.33-.24.66-.507 1.03-.666.76-.327 1.58-.53 2.316-.902.919-.463 1.517-1.256 1.467-2.317-.04-.858-1.399-1.93-2.452-1.945-.823-.012-1.648.155-2.47.262-.273.033-.56.215-.804.163-.215-.048-.494-.298-.545-.508-.396-1.612.175-2.718 1.723-3.24 2.5-.844 5.03-1.6 7.518-2.472a10.76 10.76 0 0 0 2.554-1.333c.58-.405.785-1.12.676-1.864-.114-.784-.837-1.692-1.598-1.723-1.095-.045-2.213-.005-3.288.18-.95.163-1.851.59-2.79.845-.1.026-.466-.372-.43-.48.35-1.055.71-2.15 1.987-2.44 2.57-.591 5.152-1.13 7.715-1.743a38.658 38.658 0 0 0 3.98-1.156c.77-.272 1.22-1.316 1.087-2.071-.14-.78-.862-1.65-1.643-1.674a40.654 40.654 0 0 0-4.562.133c-.818.07-1.611.413-2.427.57-.235.046-.562-.074-.75-.234-.077-.066.025-.528.177-.648.638-.498 1.266-1.135 2.009-1.36 3.181-.979 6.407-1.82 9.614-2.724.8-.226 1.625-.423 2.37-.779.465-.222.796-.722 1.198-1.08.624-.553-.125-1.923.87-1.978.68-.038 1.394.782 2.11 1.19 3.186 1.816 6.5 3.172 10.281 2.864.553-.045 1.115-.03 1.669.005 3.391.213 6.59-.362 9.715-1.806 2.633-1.213 5.34-2.315 8.253-2.84 1.437-.257 2.743-.19 4.086.251 1.522.503 1.758.844 1.545 2.762-.22 1.976-.163 3.884.87 5.662 1.203 2.071 2.957 3.252 5.37 3.442 3.85.303 5.992-.981 7.434-4.622.72-1.816 1.275-3.71 1.084-5.688-.176-1.805.638-2.881 2.15-3.649.57-.29 1.088-.325 1.498.14 1.741 1.976 3.61 3.87 5.138 6.003 3.4 4.744 6.636 9.604 10.436 14.053.63.736 1.108 1.596 1.691 2.376.597.798.989 1.636 1.052 2.662.059.967.326 1.915.453 2.876.54 4.054-2.186 7.348-6.342 7.608zm-29.845-2.889c-.45-.46-.97-1.11-.987-1.693-.063-2.254 1.02-3.554 3.09-4.324 1.263-.466 2.463.487 2.594 2.141-.157.367-.286 1.107-.712 1.578-.727.813-1.62 1.483-2.485 2.16-.44.346-1.068.581-1.5.138zm9.061-26.006c-.1.258-.14.538-.238.798-.603 1.616-1.35 2.209-2.664 2.133-1.478-.085-2.716-.998-3.059-2.37-.167-.661-.155-1.37-.188-1.692.021-1.132.477-1.595 1.313-1.64.83-.043 1.674.028 2.493-.083 2.852-.387 3.32.278 2.343 2.854zm-49.89-12.743c2.15-2.543 4.313-5.077 6.485-7.6.361-.42.807-.764 1.197-1.16.976-.989 3.096.072 3.476-1.726.282-1.326.1-2.737 1.209-3.8.163-.155.24-.533.18-.765-.586-2.255.734-3.334 2.504-4.162.251-.117.507-.232.742-.38 2.493-1.573 2.436-2.779-.203-4.421-.946-.589-1.05-1.026-.665-2.045.421-1.114 1.093-1.905 2.276-2.225.668-.178 1.342-.36 1.981-.62.946-.385 1.411-1.274 1.318-2.364-.083-.982-.858-1.82-1.89-1.903-.536-.04-1.087.135-1.633.165-1.194.065-1.721-.486-1.718-1.74 0-.618.271-1.089.835-1.294 1.042-.38 2.115-.673 3.165-1.037a9.14 9.14 0 0 0 1.515-.666c.76-.423 1.235-1.418 1.06-2.095-.184-.714-1.046-1.44-1.862-1.432-1.106.007-2.21.123-3.316.17-.534.023-1.106-.62-.996-1.085.62-2.654 2.094-3.524 4.019-3.336 1.103.11 2.394-.24 3.296.217 2.554 1.295 4.502-.422 6.663-1.01.862-.237 1.252-1.148 1.28-1.989.024-.817-.2-1.652-.373-2.465-.183-.868-.821-1.378-1.806-1.41-1.11-.041-2.241-.127-3.33.03-3.325.474-6.658.341-9.992.324-.416 0-.862-.092-1.246.02-2.776.798-5.491-.167-8.235-.237-.402-.009-.9-.07-1.178-.311a10.77 10.77 0 0 1-1.634-1.827c-.211-.296 1.104-1.016 2.09-1.022 3.891-.02 7.785-.007 11.677-.007v-.26c3.336 0 6.671.033 10.006-.017 1.244-.017 2.484-.228 3.725-.353.552-.055 1.162-.286 1.644-.128 3.842 1.244 7.698.628 11.557.205a.59.59 0 0 1 .355.08c.105.07.208.19.24.308.034.122.032.34-.04.39-.568.392-1.15.759-1.736 1.121-1.889 1.163-3.689 2.52-5.693 3.426-1.842.832-2.27 2.155-2.446 3.922-.754 7.62-.74 15.26-.814 22.902-.02 2.125.61 3.804 2.18 5.15 1.395 1.197 2.365 2.663 3.199 4.303 1.54 3.02 3.812 5.444 6.664 7.299.451.293.956.7 1.444.713 1.27.028 2.036.735 2.742 1.63 1.117 1.416 2.257 2.814 3.353 4.243.107.139.06.613-.045.665-2.117 1.02-4.227 2.063-6.392 2.968-1.538.646-3.067.08-4.405-.632-4.26-2.264-8.6-1.804-12.934-.466-2.383.733-4.675 1.759-7 2.674-5.396 2.124-10.652 1.645-15.61-1.183-2.082-1.188-4.046-2.398-6.512-2.49-.571-.021-.788-.775-.374-1.262zm83.875 31.169c.02-2.029-.656-3.827-1.752-5.478-.845-1.273-1.692-2.553-2.643-3.747-3.116-3.91-6.155-7.875-9.046-11.957-2.005-2.83-4.266-5.48-6.435-8.194-3.47-4.338-7.247-8.42-10.314-13.094-1.592-2.422-3.647-4.55-5.589-6.724-2.22-2.489-4.609-4.819-6.575-7.538-.864-1.195-1.333-2.4-1.242-3.855.267-4.296.474-8.598.808-12.89.235-3.043.444-3.306 3.694-3.916 4.101-.77 6.671-2.882 7.767-7.075.701-2.682.173-4.913-1.083-7.137-.495-.872-1.367-1.325-2.345-1.614a17.277 17.277 0 0 0-7.439-.531c-4.02.598-8.043.468-12.07.553-3.06.06-6.178-.182-9.158.345-3.187.563-6.35.638-9.05.732-2.018 0-3.553-.067-5.078.019-1.66.095-3.323.264-4.966.52-3.87.602-5.248 2.328-5.1 6.24.13 3.371 2.066 6.125 5.257 7.262 1.565.558 3.202.913 4.806 1.358 1.428.396 1.648.563 1.7 1.91.21 5.561.327 11.123-.257 16.672-.22 2.103-.9 4.043-2.064 5.831-.908 1.396-1.801 2.817-2.53 4.312-.992 2.029-2.359 3.742-3.815 5.443-2.893 3.375-5.858 6.712-8.465 10.304-4.57 6.292-8.905 12.75-13.656 18.92-4.021 5.228-6.62 11.14-8.002 17.677-.974 4.605.26 8.474 2.48 12.289 1.397 2.405 3.426 3.861 6.128 4.657 2.314.682 4.665.704 7 .995 4.421.553 8.835.758 13.254-.167 2.034-.424 4.112-.689 6.183-.863 4.707-.393 9.422-.686 14.134-1.02.555-.041 1.117-.043 1.665-.129 5.497-.863 11.066-.858 16.594-1.38 3.866-.368 7.784-.186 11.678-.286 1.103-.03 2.21-.141 3.306-.29 4.158-.557 8.357-.812 12.465.006 5.3 1.053 9.907-.536 14.252-3.202 1.505-.922 2.714-2.366 3.941-3.683 1.068-1.146 1.611-2.56 1.582-4.183a259.25 259.25 0 0 1-.02-7.092z" id="Fill-32"/><path d="M347.97 139.505c-.422-1.015-.297-2.29-.283-3.437.093-8.132-1.107-16.128-2.558-24.077-2.24-12.237-6.334-23.659-14.262-33.602-4.302-5.39-8.103-11.268-11.504-17.277-9.807-17.314-24.245-29.672-41.251-39.333-11.744-6.673-24.248-11.747-36.92-16.316C232.126 2.2 222.726.083 212.987.118c-12.315.036-24.637.204-36.95.125-8.545-.057-16.798 1.433-25.03 3.558-16.47 4.266-32.086 10.826-47.406 17.99-9.043 4.222-17.378 9.856-24.834 16.72-16.242 14.973-27.525 32.88-33.895 54.094-4.623 15.377-6.334 30.933-4.03 46.75.607 4.18.1 7.63-1.772 11.004-1.861 3.35-4.12 6.495-6.334 9.635a386.549 386.549 0 0 1-8.872 12.112c-3.5 4.57-6.96 9.192-10.746 13.523-4.62 5.273-8.246 11.071-11.004 17.51-1.422 3.311-1.79 6.695-1.583 10.164.464 8.096 6.58 14.587 14.68 15.184 4.591.34 9.232-.075 13.852-.175 5.538-.118 7.406 1.108 9.396 6.506.661 1.786 1.44 3.69 1.436 5.538-.025 5.895 1.504 11.543 3.373 16.917 4.962 14.312 6.752 29.157 8.489 44.044 1.44 12.333 4.312 24.184 10.829 34.984 1.922 3.18 4.151 5.167 7.856 6.063 8.407 2.033 16.817 1.912 25.23.647 4.924-.74 9.737-2.2 14.628-3.14 5.78-1.115 8.331.328 10.84 5.777.639 1.39 1.039 2.93 1.886 4.173 5.855 8.628 10.378 17.988 15.205 27.192 2.662 5.087 6.056 9.81 9.404 14.487.718 1.004 2.643 1.354 4.076 1.572 2.312.35 3.762-1.397 3.087-3.422-2.558-7.643-4.859-15.385-7.746-22.905-3.855-10.05-8.217-19.911-12.268-29.89-1.004-2.469-1.923-5.052-2.32-7.674-.185-1.222.612-3.101 1.594-3.901 3.262-2.67 6.931-4.83 10.2-7.485 1.705-1.387 3.512-3.07 3.09-5.77-.306-1.983-3.293-3.284-6.862-2.773-1.883.279-3.848.608-5.56 1.39-9.435 4.305-18.653 9.11-28.242 13.037-6.667 2.733-13.587 5.284-21.09 4.777-11.668-.783-15.977-4.491-17.22-16.031-.869-8.082-2.63-15.91-4.724-23.72-.993-3.712-1.804-7.474-2.568-11.243-.715-3.519.475-5.209 3.969-5.202 8.971.018 17.542-2.1 26.024-4.651 2.919-.88 5.791-2.07 7.838-4.616.95-1.18.776-3.273-.457-4.013-4.623-2.78-9.643-2.268-14.63-1.75-4.198.432-8.371 1.486-12.57 1.575-17.749.397-12.807 2.244-17.034-14.073-.379-1.465-.029-3.112-.364-4.598-1.512-6.72-3.012-13.444-4.788-20.096-.854-3.22-3.23-5.11-6.649-5.606-4.948-.704-9.818-1.615-14.909-.675-3.662.668-8.278 1.757-10.364-2.44-1.65-3.312 1.307-6.546 2.876-9.522 1.05-1.99 2.922-3.548 4.33-5.37 3.762-4.866 7.55-9.721 11.186-14.684 3.866-5.277 7.092-11.107 11.458-15.923 9.078-10.018 11.608-22.587 13.512-34.999 1.39-9.07 3.055-18.174 3.851-27.363.372-4.259 2.026-8.128 3.462-12.126 3.177-8.843 8.668-16.228 13.684-23.98 11.43-17.671 28.089-28.475 47.428-34.906 19.825-6.592 40.704-8.014 61.451-9.046 17.47-.868 34.291 3.294 51.08 7.824 15.187 4.094 28.056 12.34 40.986 20.668 1.6 1.03 3.012 2.405 4.39 3.741 4.963 4.813 9.493 10.032 15.46 13.812 2.462 1.558 4.19 4.473 5.866 7.024 9.825 14.977 16.313 31.208 19.511 48.947 3.037 16.799 1.872 32.937-4.887 48.582-3.352 7.76-6.95 15.42-10.676 23.005-6.599 13.458-12.947 27.063-20.925 39.8-6.735 10.772-13.409 21.533-22.955 30.232-3.051 2.78-5.31 6.56-7.439 10.168-1.11 1.887-1.318 4.366-1.636 6.628-.346 2.458 1.815 4.39 4.27 3.998 1.654-.265 3.297-.633 4.944-.976.122-.146.247-.293.361-.446.293-.133.6-.243.872-.404.168-.107.286-.293.421-.447-.321.39-.643.776-.968 1.165-.228.043-.457.086-.686.132-1.525 1.94-3.194 3.79-4.437 5.895-2.137 3.62-4.184 7.335-5.802 11.208-1.2 2.883 2.418 6.363 5.462 5.395 3.27-1.047 6.406-2.483 9.658-3.58.4-.136 1.204.686 1.7 1.186.204.21.265.882.086 1.1-1.44 1.776-2.833 3.612-4.462 5.199-3.08 3-5.599 6.32-7.139 10.382-1.029 2.712-.832 4.387 1.115 6.256 1.472 1.4 3.133 2.187 5.205 1.354 1.072-.425 2.133-.893 3.216-1.286 3.98-1.444 4.759-.983 5.405 2.683.561 3.158.683 6.095-1.825 8.6-.797.803-1.376 1.854-1.937 2.865-1.3 2.326-.76 5.102 1.694 5.727 3.748.947 6.249 2.476 6.999 6.56.282 1.497 2.018 2.179 3.726 1.965 5.713-.697 7.142-2.358 7.138-7.035-.007-11.94.004-23.884-.003-35.828-.004-13.869.06-27.738-.09-41.604-.053-4.891 1.455-9.06 4.427-12.805 8.418-10.618 14.427-22.74 21.026-34.444 6.23-11.044 11.393-22.698 16.824-34.18 4.616-9.754 8.47-19.776 10.743-30.394 1.611-7.506 4.098-14.884.865-22.565z" id="Fill-8" transform="matrix(-1 0 0 1 350.024 0)"/></g></svg>