<svg width="346" height="433" viewBox="0 0 346 433" xmlns="http://www.w3.org/2000/svg"><title>Clipboard</title><g id="Page-1" fill="#1A1918" fill-rule="evenodd"><path d="M140.504 216.296c.397-.58.741-1.279.847-1.967.24-1.613.323-3.253.502-5.2-.055-.775-.086-1.86-.214-2.938-.097-.836-1.38-1.483-2.136-1.008-.738.46-1.726 1.033-1.926 1.746-.677 2.43-1.067 4.948-1.527 7.438-.065.334.048.722.148 1.066.285.948.939 1.54 1.9 1.73.957.19 1.848-.052 2.406-.867zm-1.066 10.24c-.213.291-.476.577-.584.908-.784 2.401-1.616 4.819-1.411 7.382.078 1.023.485 2.082.986 2.99a2.044 2.044 0 0 0 2.332.99c.896-.234 1.67-.86 1.82-1.817.223-1.423.264-2.873.465-5.299-.17-.996-.414-2.945-.857-4.846-.229-.973-2.143-1.127-2.75-.308zm13.8-29.272c.304-.157.92-.291 1.234-.674.805-.984 1.568-2.032 2.187-3.142a6019.58 6019.58 0 0 0 16.72-30.174c2.462-4.474 4.825-9 7.176-13.53.192-.371.114-1.114-.149-1.417-.3-.35-.933-.52-1.438-.56-1.196-.095-2.126.535-2.773 1.467a72.074 72.074 0 0 0-2.956 4.607c-2.209 3.782-4.361 7.598-6.54 11.399-4.722 8.237-9.462 16.461-14.15 24.718a28.147 28.147 0 0 0-2.026 4.463c-.473 1.347 1.12 3.06 2.714 2.843zm7.574 13.678c5.742-9.584 11.57-19.116 17.21-28.758 3.327-5.689 6.41-11.525 9.486-17.354.832-1.582 1.244-3.388 1.799-4.951-.36-.76-.467-1.394-.84-1.673-.702-.53-1.43-.03-1.876.491-1.065 1.24-2.15 2.496-2.988 3.89-3.295 5.5-6.52 11.04-9.728 16.59-7.24 12.532-14.88 24.817-22.71 36.989-1.385 2.148-2.548 4.443-3.714 6.721-.533 1.048.036 2.287 1.272 3.335.92.777 2.01.799 2.995-.012 3.483-2.87 6.05-6.437 7.196-10.787a16.885 16.885 0 0 1 1.898-4.481zm10.568 21.15c-1.026 1.286-1.963 2.653-2.843 4.045-.485.76-.844 1.628-1.117 2.493-.245.786.938 1.855-.205 2.421-.763.374-1.764.354-2.663.356-7.142.025-14.292.013-21.438.013v.111c-5.496 0-10.994-.022-16.491.008-3.838.018-7.639.222-11.473.771-5.053.719-10.218.664-15.339.902-.91.047-1.86-.87-1.842-1.683.1-4.759.204-9.516.336-14.273.05-1.686.502-2.204 2.35-2.285 6.495-.278 11.871-3.497 17.229-6.628 1.676-.976 3.14-2.584 4.253-4.214 4.12-6.042 8.382-12.007 11.521-18.667.628-1.329.642-3.035 2.162-3.877.099 1.433.191 2.87.309 4.302.045.541-.033 1.246.273 1.577.58.635 1.339 1.29 2.135 1.481.513.12 1.424-.42 1.793-.933a5.336 5.336 0 0 0 .947-2.505c.39-4.007.685-8.02.95-12.039.044-.703-.04-1.545-.396-2.116-1.155-1.86-.447-3.435.432-5.09 2.919-5.497 5.72-11.055 8.71-16.51 2.757-5.038 6.436-9.325 11.148-12.664.111-.081.36-.052.502.015.127.06.303.307.271.359-.283.468-.604.916-.925 1.36-4.603 6.407-8.753 13.09-12.333 20.123-.665 1.306-1.327 2.621-1.843 3.988-.377 1.01-.604 2.1-.741 3.174-.118.936.172 1.811 1.15 2.257.76.347 1.878.02 2.378-.834a65.244 65.244 0 0 0 2.334-4.344c4.874-9.882 10.718-19.17 17-28.206.85-1.223 1.8-1.609 3.148-1.748 2.93-.306 5.401.54 7.521 2.568a193.514 193.514 0 0 0 4.857 4.461c2.535 2.26 3.923 5.315 5.383 8.228 2.71 5.39 5.041 10.969 7.573 16.448.71 1.539.482 2.75-.731 3.945-6.301 6.203-11.098 13.613-16.355 20.65-6.689 8.948-13.25 17.99-19.857 26.996-.976 1.328-2.019 2.622-2.84 4.044-.432.748-.574 1.727-.619 2.614-.048.955.462 1.753 1.328 2.237.87.487 1.797.503 2.594-.07 3.008-2.167 5.778-4.634 6.94-8.27a18.603 18.603 0 0 1 2.391-4.874c6.889-10.152 13.744-20.327 20.64-30.474 2.265-3.334 4.6-6.617 6.94-9.896 1.56-2.188 2.122-2.185 3.431-.088.487.776.856 1.626 1.375 2.376 2.084 3.027 1.202 5.992-.61 8.557-2.423 3.433-5.3 6.542-7.936 9.829a11657.49 11657.49 0 0 0-23.707 29.58zm6.848-.228c7.33-9.849 14.691-19.671 22.05-29.495.66-.88 1.308-1.773 2.043-2.592.346-.382.876-.602 1.322-.896.187.443.512.878.538 1.328.111 2.01.05 4.034.233 6.038.09.945.874 1.589 1.832 1.822.907.222 2.246-.804 2.376-1.845.116-.905.141-1.825.154-2.738.037-2.017.02-4.035.075-6.05.008-.268.314-.745.486-.746.32-.004.715.2.947.443.501.53.96 1.11 1.362 1.718 5.404 8.202 13.22 12.958 22.396 15.86 7.75 2.453 15.786 3.088 23.787 3.95 2.808.301 5.42-1.55 5.76-3.908.301-2.097-1.628-4.51-4.11-5.132-.177-.044-.363-.054-.546-.074-3.267-.392-6.533-.79-9.801-1.167-8.305-.963-16.102-3.294-23.027-8.18a18.881 18.881 0 0 1-5.246-5.539c-3.295-5.285-6.6-10.562-9.92-15.83-1.474-2.336-2.653-4.793-3.4-7.464-1.427-5.108-3.055-10.166-4.308-15.316-1.211-4.98-4.22-8.983-7.132-12.877-2.48-3.314-5.988-5.905-9.226-8.594-2.749-2.284-5.99-3.293-9.689-3.153-3.872.146-7.688.677-11.38 1.624-5.994 1.535-11.018 4.673-14.79 9.835-2.397 3.28-4.301 6.813-6.345 10.278-3.159 5.358-6.402 10.676-8.42 16.631-.7 2.07-1.67 4.088-2.792 5.964-1.706 2.851-2.947 5.873-4.116 8.965-3.063 8.11-7.05 15.689-13.017 22.119-2.042 2.2-4.256 4.067-7.11 4.994-3.304 1.07-6.653 1.992-9.992 2.954-.629.182-1.466-.5-1.514-1.218-.093-1.278-.139-2.56-.189-3.842-.104-2.747-.033-5.514-.324-8.241-1.195-11.126-1.036-22.317-1.656-33.47-.172-3.106-.025-6.232-.025-9.35h-.26c0-5.316.002-10.632-.002-15.95-.001-1.682-.018-1.679 2.186-1.7 2.418-.028 3.821-1.546 3.517-3.81-.072-.542-.095-1.144-.351-1.603-2.165-3.855-2.168-8.07-2.16-12.298a8.965 8.965 0 0 0-.264-2.16c-.37-1.49-2.27-2.302-3.518-1.416-1.026.73-2.084 1.566-2.775 2.588-2.88 4.242-5.658 8.559-8.406 12.89-.682 1.071-1.197 2.268-1.667 3.456-.678 1.734.313 3.822 2.113 4.444.672.234 1.437.21 2.158.273.862.077 1.306.581 1.352 1.387.058 1.097.032 2.2.041 3.296.078 10.453.15 20.904.242 31.354.017 1.833.1 3.667.21 5.495.518 8.775 1.016 17.549 1.617 26.315.192 2.777.015 5.128-3.414 5.617-.17.023-.326.163-.478.268-1.478 1.022-2.17 2.5-2.1 4.232.066 1.721 1.408 2.444 2.823 2.994.34.135.695.283 1.05.317 1.576.163 2.157 1.063 2.172 2.583.053 4.586.228 9.168.233 13.751.002 2.524.536 5.138-.971 7.508-.24.375-.202 1.146.025 1.563 1.815 3.341.76 6.813.55 10.241-.046.72-.325 1.432-.345 2.15-.028 1.02 1.282 2.434 2.445 2.7.997.229 1.865-.201 2.41-.951.852-1.18 1.749-2.404 2.237-3.755.62-1.717 1.448-2.228 3.275-1.84 1.082.234 2.24-.915 2.368-1.89.168-1.268.201-2.553.274-3.832.061-1.074.649-1.692 1.678-1.812 1.99-.225 3.985-.438 5.985-.514.34-.013.958.652 1.01 1.059.152 1.262.02 2.56.144 3.83.107 1.076.33 2.16.661 3.19.363 1.131 1.37 1.636 2.612 1.508 1.2-.119 1.975-.918 2.058-2.16.038-.548-.056-1.111.032-1.647.307-1.918-.834-3.972.542-5.785 1.99-.111 3.98-.228 5.972-.323.363-.02.738.004 1.094.078.774.16 1.314.602 1.31 1.448-.004 1.65-.152 3.306-.044 4.944.058.867.399 1.78.842 2.54.56.967 1.436 1.693 2.674 1.614 1.06-.07 1.958-1.377 2-2.893.039-1.284-.044-2.57.037-3.85.056-.906.142-1.864.498-2.676.255-.58.973-1.352 1.493-1.36 3.66-.065 7.32.018 10.98.149.378.013.967.618 1.041 1.024.164.887.03 1.825.068 2.74.046.913.083 1.835.25 2.732.275 1.483 1.656 2.507 3.185 2.469 1.222-.03 2.059-1.054 2.117-2.694.06-1.65.02-3.298.08-4.946.034-.842.588-1.335 1.397-1.387a46.504 46.504 0 0 1 3.843-.082c1.5.03 2.033.51 2.146 1.883.106 1.277.129 2.561.246 3.839a8.193 8.193 0 0 0 1.855 4.502c.62.756 1.514.99 2.484.77 1.043-.234 2.088-1.357 2.05-2.292-.028-.72-.218-1.433-.32-2.146-.21-1.442-.489-2.881-.598-4.33-.113-1.462.471-2.14 1.775-2.17 1.832-.04 3.667-.023 5.497.023 1.08.03 1.594.609 1.6 1.75.015 2.75-.004 5.5.012 8.25.008 1.338.449 2.49 1.49 3.41 1.161 1.03 3.246.558 3.549-.92.22-1.054.251-2.164.236-3.247-.036-2.907-.14-5.814-.22-8.72 2.994-1.2 6.133-.357 9.192-.647 1.09-.103 2.198-.036 3.296 0 1.52.055 1.951.495 2 1.94.062 2.013-.006 4.045.244 6.034.131 1.021.712 2.047 1.3 2.93.512.775 1.43 1.222 2.397.922.898-.28 1.676-.92 1.782-1.903.136-1.266.093-2.553.073-3.832-.12-6.922-.756-6.106 6.094-6.065 1.78.01 3.912-.764 5.236.66.873.94.829 2.704 1.269 4.075a41.086 41.086 0 0 0 1.352 3.59c.208.487.579.922.943 1.317.635.694 2.242.937 3.036.255.63-.542 1.083-1.396 1.37-2.199.158-.428-.254-1.037-.324-1.573-.236-1.807-2.083-3.687-1.102-5.2 1.213-1.866 3.737-.592 5.668-.857.542-.07 1.102-.023 1.651.013 1.623.103 3.513-.248 4.804.47 1.572.877.544 3.02.872 4.576.26 1.247.394 2.556.885 3.71.414.966 1.178 1.828 1.944 2.578 1.064 1.042 3.22.307 3.482-1.16.155-.889.217-1.822.13-2.72-.188-2.001-.549-3.989-.713-5.99-.033-.406.439-1.186.771-1.243 3.63-.63 7.288-.664 10.942-.234.23.028.597.879.51 1.256-.328 1.418-.832 2.797-1.247 4.198-.389 1.307-.241 2.545.612 3.642.565.722 1.132 1.446 1.761 2.108.985 1.033 2.467.94 3.291-.286 2.769-4.115 5.772-8.02 9.29-11.54.875-.879 1.539-2.06 2.042-3.213.63-1.442.347-2.89-.753-4.08a13.163 13.163 0 0 0-1.627-1.467c-2.758-2.12-5.487-4.28-8.315-6.301-1.325-.948-2.806-1.715-4.299-2.378-1.4-.622-2.867-.061-3.844 1.263-.865 1.168-.822 2.379-.023 3.565.204.305.5.545.702.848.2.296.334.637.498.963-.316.142-.639.423-.95.403-1.638-.089-3.32-.072-4.904-.431a20.34 20.34 0 0 0-7.652-.28c-4.554.706-9.134.543-13.703.806-2.776.157-5.104-.048-5.892-3.277-.04-.152-.26-.248-.38-.383-.582-.66-1.909-.576-2.385.221-.463.78-.89 1.597-1.197 2.448-.43 1.217-1.343 1.658-2.5 1.79-.546.061-1.099.098-1.646.078-3.816-.118-7.633.72-11.453.013-.109-.023-.286-.324-.254-.369a960.73 960.73 0 0 1 6.345-8.947 344.678 344.678 0 0 1 4.556-6.204c1.435-1.91 1.446-1.89 3.342.13.371.395.783.767 1.225 1.077.86.6 2.384.284 2.866-.72.372-.786.673-1.74.58-2.573-.117-1.064-.48-2.193-1.055-3.091-1.478-2.314-.644-4.09.923-5.904 1.073-1.245 1.974-2.641 2.908-4.003.3-.44.61-.975.632-1.48.02-.474-.258-1.024-.564-1.418-.154-.198-.699-.25-1.002-.152-2.594.824-4.208 2.841-5.765 4.897-6.53 8.614-13.181 17.144-19.494 25.92-2.148 2.99-4.385 4.657-8.131 4.138-1.97-.275-3.991-.207-5.989-.293-.157-2.171 1.875-3.25 2.545-5.047.563-1.51 1.592-2.88 2.568-4.195z" id="Fill-5"/><path d="M287.367 332.694c-2.324 1.206-4.492 3.11-6.068 5.194-.865 1.154-.995 3.684-.313 4.992.963 1.82 2.997 3.074 4.48 4.48 3.619-.947 6.803-1.39 9.613-2.669 1.324-.601 2.595-2.745 2.746-4.289.597-6.559-4.894-10.608-10.458-7.708zm-4.817-18.947c1.99.877 4.272 1.089 7.018 1.738 1.64-.613 4.207-.82 5.49-2.209 2.527-2.717 1.983-9.898-.58-12.513-2.315-2.356-4.971-1.097-7.493-.187-1.686.61-3.485 1.036-5.004 1.925-2.112 1.23-2.798 3.416-2.713 5.776.094 2.38 1.121 4.516 3.282 5.47zm-144.087 46.718c-1.673-.552-3.492-.917-5.251-.946-6.799-.105-13.593-.04-20.384-.04v.097c-6.795 0-13.59-.065-20.384.04-2.701.05-5.43.338-8.082.858-3.254.625-5.313 3.509-5.345 6.924-.037 3.448 2.091 5.548 6.007 5.91.901.089 1.81.121 2.713.121 12.687.017 25.371.065 38.059 0 2.7-.016 5.56-.008 8.066-.852 2.437-.829 4.74-2.474 6.673-4.249 2.242-2.038.873-6.908-2.072-7.863zm99.423-3.476c-.877-.232-1.795-.475-2.684-.443-6.38.244-12.96-.361-19.076 1.044-11.75 2.693-23.597 1.889-35.92 2.636-2.68-.179-5.86-.508-9.044-.577-5.02-.118-10.048-.276-15.04.045-2.128.138-4.35 1.17-6.218 2.307-.93.564-1.677 2.31-1.596 3.452.081 1.133 1.093 2.713 2.092 3.135 2.03.85 4.317 1.251 6.535 1.483 7.696.804 15.392 1.608 23.109 2.132 5.905.398 11.9.987 17.744.406 8.59-.845 17.099-2.563 25.611-4.114 4.017-.727 7.96-1.893 11.92-2.92 1.313-.345 2.811-.59 3.81-1.39.963-.767 1.917-2.184 1.95-3.342.057-1.9-1.251-3.318-3.193-3.854zm5.71-31.42c-1.19-.625-2.489-1.372-3.768-1.42-13.204-.512-26.46-1.272-39.367 2.55-4.858 1.434-9.5 2.721-14.707 1.41-3.44-.87-7.18-.65-10.79-.683-13.647-.13-27.322-1.978-40.911 1.243-3.432.804-7.567 1.056-10.804-.073-13.833-4.809-27.04.446-40.48 1.795-1.86.183-3.517 1.856-3.216 3.757.256 1.596 1.417 3.525 2.762 4.337 1.852 1.121 4.232 1.743 6.425 1.864 4.548.264 9.13.191 13.683.05 5.913-.18 11.587-.196 17.525 1.62 5 1.543 11.018 1.527 16.184.385 7.254-1.608 14.447-1.823 21.733-1.856 5.572-.032 10.945-.78 15.762-3.773 3.359-2.091 6.515-2.53 10.247-.515 2.295 1.238 5.219 1.823 7.855 1.815 8.634-.045 17.265-.491 25.895-.788l.012.337c6.393-.223 12.778-.438 19.17-.666 3.367-.126 6.165-1.324 8.196-4.17 1.466-2.06.812-6.056-1.405-7.218zm8.55-37.539c-10.962.05-21.915.41-32.865.926-5.901.28-11.77 1.572-17.675 1.694a1903.64 1903.64 0 0 1-50.74.32c-4.012-.032-8.077-1.124-12.033-2.062-6.677-1.6-13.195-2.81-20.23-1.56-6.705 1.198-13.654 1.068-20.063 1.487-4.545-.484-8.627-1.223-12.704-1.251-2.136-.017-4.447.873-6.377 1.917-2.798 1.519-2.883 6.701-.255 8.183 4.796 2.701 9.694 5.126 15.461 4.833 7.762-.39 15.519-.848 23.288-.962 5.443-.085 11.234-.74 16.278.812 6.755 2.088 13.42 2.498 20.263 2.457a8339.62 8339.62 0 0 0 49.366-.56c3.196-.049 6.482.09 9.565-.593 9.93-2.181 19.95-2.21 30.017-1.962 3.18.081 6.401-.04 9.54-.507 2.36-.354 4.005-2.108 4.846-4.39 1.543-4.229-1.145-8.806-5.682-8.782zm71.152-112.249c-.573 12.286-2.985 24.466-2.84 36.845.098 8.229-.36 16.461 2.052 24.503.503 1.718.577 3.61.577 5.422-.057 21.94.812 43.936-.52 65.807-1.3 21.485-1.345 42.929-1.198 64.401.048 7.741 1.096 15.474 1.575 23.207.167 2.64-1.376 4.273-3.964 4.594-1.364.174-2.745.394-4.097.345-18.338-.723-36.488 1.92-54.728 3.01-14.556.868-29.063 2.725-43.599 4.032-4.094.37-8.22.451-12.33.504-24.239.32-48.473.406-72.704.967-10.482.24-20.944 1.47-31.423 2.128-9.15.58-18.264.633-27.195-2.031-3.838-1.133-4.215-1.23-2.936-5.568.897-3.026.772-5.418-1.795-7.242-2.47-1.746-5.386-1.701-7.782-.17-2.628 1.681-4.833 4.04-7.221 6.104-1.352 1.174-2.538 2.928-4.094 3.359-1.454.414-3.521-.228-4.894-1.08-.727-.455-1.109-2.64-.658-3.566 1.584-3.266 3.716-6.271 5.402-9.492 1.044-1.998 1.848-4.167 2.44-6.344.626-2.29-1.441-5.686-3.862-6.64-2.38-.938-4.581-.24-6.218 1.523-2.164 2.34-4.029 4.975-6.096 7.412-3.286 3.842-4.272 4.325-4.955 2.579-.962-2.461.358-4.31 1.442-6.32 4.143-7.623 8.403-15.19 12.168-22.995 1.556-3.188 2.303-6.872 2.77-10.414.19-1.462-1.052-3.383-2.149-4.662-1.01-1.162-4.946-.244-6.23 1.336-1.722 2.104-3.22 4.407-4.841 6.604-.54.735-1.113 1.446-1.77 2.067-.2.17-.878.118-1.101-.093-.65-.59-1.678-1.316-1.662-1.962.065-1.746.236-3.651 1-5.17 4.284-8.586 8.813-17.05 13.13-25.615 1.852-3.668 3.464-7.453 5.048-11.242.967-2.344.065-4.472-1.34-6.389-1.815-2.477-4.922-3.245-7.124-1.41-2.428 2.007-4.516 4.428-6.847 6.564-.54.504-1.779 1.011-2.157.747-.63-.434-1.12-1.49-1.149-2.307-.227-7.213-2.132-14.446.166-21.643-.856-19.62.695-39.286-1.34-58.902-.897-8.619-.881-17.347-.954-26.03-.122-13.703-.102-27.398-1.978-41.032-.362-2.644-.22-5.552.508-8.107 4.459-15.693 3.708-31.585 2.546-47.583-.69-9.552-.512-19.182-.54-28.775-.008-3.22 1.99-5.19 5.097-5.215 6.389-.057 12.854-.426 19.178.321 5.243.625 10.941-.297 15.677 3.115-1.214 4.805-2.417 9.605-3.655 14.41-.337 1.316-.886 2.595-1.15 3.927-.528 2.665 1.012 5.593 3.595 6.746 5.507 2.45 11.323 3.286 17.338 3.22a2503.62 2503.62 0 0 1 37.048-.125c8.216.024 16.432.236 24.652.37 0 .24-.004.487-.008.727 12.802 0 25.616-.203 38.413.065 11.409.231 22.793 1.064 34.201 1.494 5.024.195 10.125.593 15.076-.049 17.302-2.254 34.676-1.734 52.039-1.75 4.63-.008 8.927-1.109 13.378-2.283 8.427-2.2 9.228-7.907 9.22-15.819 0-1.34-.797-2.696-.752-4.033.118-3.436-4.528-6.258-1.271-10.048 4.033-.065 8.078-.296 12.095-.065.999.057 2.53 1.47 2.77 2.514 1.035 4.42 2.172 8.92 2.392 13.432 1.4 29.242 1.502 58.524.134 87.77zM132.863 78.58c.223.353.524.678.666 1.068.142.386.142.833.195 1.255-.053.414-.053.857-.195 1.243-.142.37-.443.678-.666 1.023-.443-.455-1.32-.99-1.247-1.34.227-1.12.804-2.18 1.247-3.249zm35.123-.057c.442-.52 1.62-.877 2.238-.666.662.227 1.348 1.15 1.527 1.889.767 3.26-1.056 5.405-4.7 4.849-.263-.699-1.068-1.763-.91-2.664.212-1.215 1.012-2.437 1.845-3.408zm.52-57.656c.32-.796 2.36-1.34 3.566-1.254 8.171.532 16.326 1.222 24.474 1.961 2.176.195 3.375 2.567 3.025 5.227-.3 2.246-1.831 3.123-3.716 3.197-4.09.154-8.196.044-12.294.044v.297c-4.102 0-8.196.085-12.298-.037-1.892-.065-3.74-1.02-3.83-3.058-.089-2.128.268-4.419 1.073-6.377zm34.473 42.251c5.933-.085 11.855-.024 16.063-.024 18.548.901 35.37 1.714 52.193 2.546 2.436.122 4.333 1.166 5.511 3.383 1.478 2.823 3.058 5.597 4.46 8.448 1.262 2.58.345 4.41-2.25 5.166-7.58 2.193-15.385 2.409-23.053 1.495-6.425-.776-12.619-.32-18.995.093-11.803.764-23.674.557-35.513.65-1.954.008-3.534-1.113-3.599-3.24-.134-4.546-.21-9.098-.024-13.643.138-3.404 1.75-4.825 5.207-4.874zm141.576 113.07c-2.299-11.754-2.29-23.626-2.307-35.501-.036-15.998.248-31.996-.044-47.99-.139-7.724-.784-15.53-2.116-23.13-1.065-6.104-4.57-10.847-11.47-11.98-4.488-.748-8.927-1.824-13.382-2.79-3.964-.85-7.68-1.613-11.998-.52-5.58 1.421-7.806-.492-10.454-6.23-.763-1.65-1.575-3.31-2.091-5.053-2.344-7.85-7.843-10.742-15.64-10.263-2.734.166-5.484.223-8.22.223-2.271-.008-4.623.142-6.816-.32-19.109-4.025-19.844-4.119-34.916-2.957-.897.065-1.97.223-2.692-.159-1.097-.572-2.677-1.49-2.795-2.42-.459-3.607-.353-7.282-.589-10.926-.361-5.787-2.51-10.58-7.822-13.585-1.117-.63-1.966-1.718-2.944-2.587h-2.742c-1.174 2.555-3.615 2.546-5.812 2.579-8.224.114-16.448.008-24.673.106-5.024.065-10.08 0-15.047.617-5.26.646-9.077 5.028-9.54 10.145a45.891 45.891 0 0 0-.098 6.848c.366 5.848-.146 7.773-7.623 7.985-6.368.17-12.696 1.259-19.064 1.62-7.303.418-14.642.17-21.924.776-8.16.666-15.023 3.777-18.236 12.172-.812 2.12-1.945 4.126-2.928 6.193-1.746 3.708-4.731 5.203-8.76 5.402-15.92.751-31.83 1.653-47.746 2.502-1.824.101-3.757-.09-5.442.45C13.25 59.115 8.523 61.636 7.45 68.02c-.516 3.144-1.702 6.214-1.897 9.366-.983 15.482-3.119 30.87-2.843 46.466.305 17.367-.32 34.738-.309 52.1.061 60.791.18 121.582.415 182.373.032 8.204.739 16.408 1.43 24.588.357 4.179.568 8.228-1.349 12.058-3.887 7.766-2.823 16.05-2.587 24.222.077 2.9 2.14 5.17 5.064 5.658 14.84 2.437 29.567 5.682 44.716 5.698 53.48.033 106.961.154 160.438.102 20.108-.017 40.265.312 60.308-.939 10.649-.666 20.997-.56 31.138 2.096 7.51 1.97 14.309 1.003 21.424-1.226 10.345-3.246 16.351-10.008 16.819-20.746.3-6.738 3.358-13.407.735-20.238 3.22-7.952 1.222-16.225 1.462-24.36.37-12.782-.211-25.648.979-38.352 1.36-14.605 1.303-29.177 1.425-43.794.073-9.134.378-18.28.386-27.419.04-23.308-.008-46.612-.077-69.917-.008-3.196.036-6.457-.573-9.568z" id="Fill-42"/></g></svg>