<?xml version="1.0" encoding="UTF-8" standalone="no"?>
<svg width="350px" height="394px" viewBox="0 0 350 394" version="1.1" xmlns="http://www.w3.org/2000/svg" xmlns:xlink="http://www.w3.org/1999/xlink" xmlns:sketch="http://www.bohemiancoding.com/sketch/ns">
    <!-- Generator: Sketch 3.3.3 (12072) - http://www.bohemiancoding.com/sketch -->
    <title>Brain</title>
    <desc>Created with Sketch.</desc>
    <defs></defs>
    <g id="Page-1" stroke="none" stroke-width="1" fill="none" fill-rule="evenodd" sketch:type="MSPage">
        <path d="M156.202888,112.417539 C156.904683,112.476123 157.306232,112.996062 157.309893,113.854083 C157.313555,114.531467 156.924211,115.053847 156.457975,114.996483 C155.671964,114.898842 155.045841,114.145785 155.026313,113.275559 C155.016549,112.817867 155.631687,112.369939 156.202888,112.417539 L156.202888,112.417539 Z M154.197584,119.170638 C155.712241,119.46112 157.248867,119.391551 158.619504,118.550617 C159.312755,118.125879 160.136602,117.715786 160.556458,117.072576 C161.866069,115.06117 161.851423,112.881334 160.787135,110.760082 C159.814386,108.821907 158.139842,108.016368 156.002723,108.083496 C155.311913,108.138419 154.623544,108.18846 153.933954,108.248265 C152.370476,108.386183 151.384302,109.23444 150.974209,110.729569 C150.221152,113.458636 150.925389,115.932617 152.47544,118.171038 C152.822066,118.672669 153.572682,119.051028 154.197584,119.170638 L154.197584,119.170638 Z M144.661715,149.373458 C144.514033,150.176555 143.796371,150.861263 142.909058,150.896658 C142.236555,150.922289 141.527437,150.834412 140.89155,150.624484 C140.398462,150.463376 139.895611,150.038637 140.145816,149.385663 C140.537601,148.350667 140.936709,147.307129 141.483499,146.352687 C141.715396,145.949918 142.375694,145.484902 142.755273,145.54959 C143.36675,145.652113 144.027048,146.069528 144.439581,146.547969 C144.754474,146.915344 144.717858,147.582965 144.797192,147.940575 C144.742269,148.548391 144.734946,148.968247 144.661715,149.373458 L144.661715,149.373458 Z M148.180454,147.130154 C147.992495,144.208246 146.579141,142.490984 143.568135,141.50725 C140.825642,140.610173 139.485518,141.042234 137.454584,143.473497 C137.278831,143.685866 137.094533,143.895794 136.935866,144.119148 C133.832101,148.510555 136.01682,153.912546 141.285775,154.875531 C144.988812,155.551695 147.843593,153.37552 148.17069,149.609017 C148.206085,149.198924 148.175572,148.782729 148.175572,148.370196 L148.184116,148.370196 C148.184116,147.957662 148.207306,147.542688 148.180454,147.130154 L148.180454,147.130154 Z M126.585914,163.109113 C125.874355,163.812129 124.246191,163.566805 123.65058,162.666067 C123.062293,161.773872 123.090365,160.393471 123.814129,159.554979 C124.048468,159.282804 124.520806,159.213235 124.74416,159.113153 C125.806007,159.185163 126.532212,159.515922 126.906909,160.380046 C127.309679,161.308856 127.155894,162.546456 126.585914,163.109113 L126.585914,163.109113 Z M128.139628,155.380823 C126.450438,154.105387 124.558642,154.026054 122.600939,154.117592 C120.709143,154.205469 119.498394,155.288064 118.911328,156.987019 C118.315717,158.70306 118.22784,160.465481 118.672107,162.29381 C119.556979,165.948027 121.755123,167.823955 125.392253,167.806868 C128.387392,167.793443 130.255998,166.580253 130.945588,163.807247 C131.806049,160.350753 131.33127,157.787675 128.139628,155.380823 L128.139628,155.380823 Z M203.290287,164.405298 C201.905004,164.491954 200.509958,164.419944 199.118573,164.419944 C199.11247,164.33939 199.107588,164.260057 199.101485,164.181944 C196.896018,164.400416 194.692992,164.744601 192.480201,164.812949 C187.480979,164.975278 182.542783,166.083504 177.51793,165.745422 C177.328751,165.733216 177.135909,165.509862 176.99433,165.342652 C176.955273,165.297493 177.06512,165.077801 177.152997,164.982601 C177.427612,164.67259 177.722976,164.379667 178.01834,164.089185 C178.61151,163.502118 179.215664,162.927257 179.806392,162.338969 C181.428454,160.718128 181.834885,158.760425 181.382075,156.567162 C180.863357,154.060228 178.96912,152.519941 176.380412,152.407653 C174.196914,152.312453 172.270944,153.187561 170.492656,154.193264 C168.852286,155.120854 168.117537,156.858865 167.994266,158.770189 C167.856348,160.898764 168.166358,162.921154 169.262379,164.801965 C169.672471,165.50498 169.490615,165.845504 168.777835,165.928498 C166.314839,166.222642 163.848182,166.486273 161.380305,166.743801 C159.173617,166.973258 156.965708,167.188068 154.75658,167.390673 C154.065769,167.45414 153.265112,167.695802 152.693912,167.445596 C150.864363,166.643719 149.14588,167.404099 147.401767,167.62135 C143.964802,168.04853 140.540042,168.57213 137.114061,169.079864 C132.308901,169.792643 127.487874,170.434633 122.708344,171.292654 C120.394251,171.707628 118.303512,171.202336 116.210332,170.457823 C114.847019,169.9745 114.539449,169.492397 115.189983,168.016797 C116.088281,165.980981 113.910885,163.98178 112.063028,164.41018 C111.527223,164.534672 111.006064,164.712867 110.470258,164.830037 C110.376279,164.852006 110.202966,164.72019 110.143161,164.615226 C110.106545,164.550539 110.184658,164.360139 110.265212,164.300334 C110.594751,164.059893 110.924289,163.7926 111.295325,163.633934 C112.055705,163.306836 112.87589,163.104231 113.610639,162.731974 C114.529685,162.2694 115.127737,161.476066 115.077696,160.41544 C115.037419,159.55742 113.678987,158.484589 112.625685,158.469942 C111.803059,158.457737 110.977992,158.624948 110.155366,158.732353 C109.883191,158.765307 109.596371,158.947163 109.352268,158.894681 C109.137458,158.847081 108.85796,158.596876 108.806699,158.386947 C108.411253,156.77465 108.982453,155.668865 110.530063,155.146485 C113.029674,154.30311 115.559798,153.547613 118.048425,152.674946 C118.946722,152.357612 119.819389,151.890156 120.601738,151.342145 C121.181482,150.936935 121.386528,150.221714 121.277903,149.478422 C121.164395,148.693632 120.440631,147.78557 119.680251,147.755057 C118.58545,147.709898 117.46746,147.750175 116.392188,147.935693 C115.441409,148.098021 114.54067,148.525201 113.602095,148.780288 C113.502013,148.805919 113.135859,148.408032 113.171254,148.300626 C113.521541,147.244883 113.881593,146.150082 115.15947,145.8596 C117.72865,145.268872 120.311256,144.729405 122.874334,144.116707 C124.218119,143.795712 125.554581,143.423456 126.854427,142.960881 C127.623351,142.688707 128.07372,141.645168 127.940684,140.88967 C127.800325,140.109762 127.079002,139.239536 126.297873,139.216347 C124.778334,139.173629 123.250252,139.221229 121.735595,139.349383 C120.917851,139.418952 120.124518,139.761916 119.309215,139.919362 C119.073656,139.964521 118.746558,139.844911 118.55982,139.685024 C118.481707,139.619116 118.58423,139.156542 118.735574,139.036931 C119.373902,138.538962 120.002466,137.901854 120.744538,137.676059 C123.926416,136.698428 127.152233,135.857494 130.358521,134.953094 C131.159177,134.727299 131.984244,134.529576 132.728757,134.174407 C133.193773,133.952273 133.524532,133.451863 133.927301,133.094253 C134.550984,132.54136 133.801588,131.170724 134.797527,131.115801 C135.476133,131.077965 136.191353,131.89815 136.906574,132.305801 C140.093334,134.121925 143.407027,135.477915 147.188177,135.170345 C147.74107,135.125187 148.302506,135.139833 148.856619,135.175228 C152.248425,135.387597 155.446169,134.812735 158.571904,133.368868 C161.204551,132.155678 163.911649,131.053554 166.825014,130.528734 C168.261558,130.272426 169.567507,130.338334 170.911292,130.78016 C172.433272,131.283011 172.668831,131.623534 172.456462,133.542181 C172.236769,135.518192 172.292913,137.425854 173.326688,139.204142 C174.528893,141.275352 176.282771,142.455589 178.696946,142.645989 C182.546444,142.948676 184.688445,141.664696 186.129871,138.023905 C186.849974,136.207782 187.405307,134.314766 187.213687,132.336314 C187.037933,130.531175 187.852015,129.454682 189.364231,128.686979 C189.934211,128.397718 190.451708,128.362323 190.861801,128.827338 C192.603473,130.803349 194.472079,132.696365 196.000161,134.829822 C199.400511,139.573957 202.636092,144.434041 206.435549,148.882811 C207.065334,149.618781 207.543775,150.479242 208.12718,151.25915 C208.724011,152.057366 209.115796,152.894638 209.179263,153.92109 C209.237847,154.887736 209.50514,155.836075 209.632073,156.796619 C210.172761,160.851164 207.446134,164.145329 203.290287,164.405298 L203.290287,164.405298 Z M173.445078,161.516343 C172.995929,161.05621 172.47477,160.405676 172.457682,159.823491 C172.395436,157.569204 173.478031,156.269357 175.548022,155.499213 C176.811253,155.032977 178.011017,155.986198 178.141612,157.639993 C177.985387,158.007368 177.856012,158.746999 177.430053,159.218117 C176.702627,160.030979 175.809212,160.70104 174.945088,161.378425 C174.505703,161.723831 173.877139,161.95939 173.445078,161.516343 L173.445078,161.516343 Z M182.506167,135.509648 C182.406085,135.768397 182.365808,136.047894 182.268167,136.307864 C181.665234,137.923823 180.917059,138.516993 179.603787,138.441321 C178.125746,138.355885 176.888145,137.442941 176.545181,136.071084 C176.377971,135.409566 176.390176,134.700448 176.357222,134.379453 C176.377971,133.246817 176.834443,132.784242 177.670494,132.739083 C178.499223,132.696365 179.343818,132.767155 180.162782,132.656088 C183.015121,132.269186 183.482578,132.934365 182.506167,135.509648 L182.506167,135.509648 Z M132.61525,122.76749 C134.765794,120.223941 136.928543,117.690156 139.101057,115.166134 C139.462329,114.746278 139.907816,114.403314 140.29838,114.006647 C141.27357,113.018031 143.393602,114.078657 143.774402,112.280841 C144.05634,110.955364 143.874484,109.54445 144.98271,108.481383 C145.146259,108.326378 145.223151,107.948019 145.163346,107.716122 C144.577499,105.460613 145.896874,104.38168 147.666618,103.554172 C147.918044,103.437002 148.174352,103.322274 148.40869,103.174592 C150.902199,101.601351 150.844835,100.395484 148.206085,98.7526728 C147.260187,98.1643855 147.156444,97.7274417 147.540906,96.7083132 C147.961983,95.5939847 148.634485,94.8030921 149.817163,94.4833177 C150.484783,94.3051228 151.158507,94.1232663 151.798056,93.863297 C152.743953,93.4776148 153.208969,92.5890812 153.11621,91.4991629 C153.033215,90.5166498 152.258189,89.6781572 151.226855,89.5963828 C150.68983,89.5561059 150.139378,89.7306393 149.592588,89.7611521 C148.398926,89.8258393 147.871665,89.2753879 147.875326,88.0207003 C147.875326,87.4031206 148.14628,86.9320025 148.710157,86.7269563 C149.752475,86.3473767 150.825307,86.0544536 151.874948,85.6895201 C152.394886,85.5113252 152.909943,85.2940738 153.389605,85.0243404 C154.149984,84.6008223 154.624764,83.6061041 154.450231,82.9287193 C154.265933,82.2147191 153.404251,81.4897342 152.587728,81.4970573 C151.481943,81.5043804 150.377378,81.6203291 149.271593,81.6679291 C148.738229,81.6898984 148.165808,81.0466879 148.275654,80.5816724 C148.896896,77.9282767 150.370055,77.0580508 152.294804,77.2460098 C153.398148,77.355856 154.689451,77.0055687 155.591411,77.4632612 C158.144724,78.7582257 160.092663,77.0409636 162.254192,76.4526763 C163.115874,76.2158967 163.506439,75.3053939 163.53329,74.4644603 C163.5577,73.6467164 163.334346,72.8118854 163.161033,71.9990236 C162.977956,71.1312387 162.339628,70.6210642 161.354674,70.5881104 C160.245227,70.5478334 159.113812,70.4623975 158.025114,70.6198437 C154.700436,71.0934028 151.367214,70.9603669 148.032772,70.9432797 C147.616577,70.9432797 147.17109,70.8505207 146.786628,70.9628079 C144.011181,71.7610236 141.295539,70.7955976 138.551826,70.7260284 C138.150277,70.7174848 137.651087,70.6552386 137.374031,70.4147975 C136.761333,69.8777717 136.214543,69.2504279 135.739763,68.5876892 C135.528615,68.2923251 136.844328,67.5722223 137.829282,67.5661197 C141.721499,67.5465915 145.614936,67.5587966 149.507152,67.5587966 L149.507152,67.2988273 C152.842815,67.2988273 156.178477,67.3317812 159.512919,67.2817401 C160.756622,67.2646529 161.996664,67.0535042 163.237926,66.9290118 C163.789598,66.8740887 164.399854,66.6434117 164.881957,66.8008579 C168.724132,68.0445609 172.579734,67.4294222 176.438996,67.0059041 C176.554945,66.993699 176.697745,67.0242118 176.794166,67.086458 C176.89913,67.1560273 177.001653,67.2768581 177.034607,67.3940273 C177.067561,67.5160787 177.06634,67.7345505 176.993109,67.7845916 C176.425571,68.1763763 175.843386,68.5425303 175.25754,68.9050227 C173.369406,70.0681718 171.569149,71.4253824 169.565066,72.3310032 C167.723312,73.1633932 167.294912,74.4864295 167.119158,76.2525121 C166.36488,83.8733965 166.378306,91.5138091 166.305075,99.1554422 C166.284327,101.280356 166.914111,102.958561 168.484912,104.304787 C169.879958,105.502111 170.850266,106.967947 171.683877,108.608317 C173.224165,111.627867 175.49554,114.051806 178.347879,115.906986 C178.799469,116.199909 179.303541,116.60756 179.791746,116.619765 C181.0623,116.647837 181.827562,117.354514 182.534239,118.250371 C183.651009,119.666166 184.790968,121.063654 185.886989,122.492875 C185.994394,122.632013 185.946794,123.105573 185.84183,123.158055 C183.72546,124.178404 181.615193,125.220722 179.450002,126.126343 C177.912156,126.771994 176.382853,126.206897 175.04517,125.494117 C170.784359,123.230065 166.444214,123.690198 162.111392,125.027881 C159.72773,125.761409 157.435606,126.78664 155.110528,127.702025 C149.714639,129.825718 144.45911,129.347277 139.501385,126.519348 C137.41919,125.330568 135.455384,124.12104 132.988727,124.028281 C132.417527,124.007532 132.201496,123.254475 132.61525,122.76749 L132.61525,122.76749 Z M216.491357,153.935736 C216.510886,151.907243 215.834721,150.109427 214.7387,148.458073 C213.894105,147.185077 213.047069,145.904759 212.096289,144.711097 C208.980319,140.800573 205.941241,136.836346 203.049846,132.753729 C201.044542,129.923359 198.784152,127.273625 196.6153,124.560424 C193.14416,120.2215 189.367893,116.140104 186.300743,111.465538 C184.709194,109.04404 182.65385,106.915465 180.712013,104.741731 C178.4919,102.253105 176.103355,99.923145 174.137109,97.2038416 C173.272985,96.0089592 172.804308,94.8030921 172.894626,93.3494609 C173.161918,89.0532545 173.369406,84.7509455 173.702606,80.4596211 C173.938165,77.4156612 174.146873,77.1532508 177.397099,76.5429942 C181.498024,75.7728504 184.068424,73.6613626 185.164445,69.4676793 C185.86502,66.7862118 185.336538,64.5551137 184.080629,62.3313386 C183.586322,61.4586717 182.713655,61.0058613 181.736024,60.7165997 C179.288895,59.9964969 176.759991,59.818302 174.296996,60.1856764 C170.276625,60.7837279 166.253814,60.6543535 162.22612,60.7385689 C159.166294,60.798374 156.049103,60.5567124 153.06861,61.0839741 C149.88185,61.6466307 146.7195,61.7223025 144.019725,61.816282 C142.000996,61.816282 140.465591,61.7491538 138.94117,61.8345897 C137.281272,61.9297898 135.617712,62.0994411 133.974901,62.3545284 C130.105875,62.9574619 128.726695,64.6832675 128.875597,68.5950123 C129.004972,71.9660698 130.940706,74.7195475 134.132348,75.8570658 C135.697045,76.4148404 137.333754,76.7700097 138.937508,77.215497 C140.365508,77.6109433 140.586421,77.7781536 140.637683,79.1243796 C140.848832,84.6862583 140.96478,90.2481369 140.381375,95.7965899 C140.160462,97.8995341 139.480636,99.8401501 138.317487,101.628202 C137.409425,103.024469 136.51601,104.445146 135.786143,105.940275 C134.795086,107.968768 133.428111,109.682368 131.972039,111.382543 C129.079423,114.758483 126.113576,118.095366 123.50656,121.687336 C118.936958,127.979082 114.601695,134.436817 109.851458,140.607732 C105.829867,145.83519 103.230174,151.747356 101.848553,158.284424 C100.874584,162.889421 102.109743,166.758447 104.329856,170.572551 C105.726123,172.978183 107.754616,174.434255 110.456833,175.23003 C112.770926,175.912296 115.121634,175.934266 117.456476,176.224748 C121.878395,176.77764 126.291771,176.982686 130.711249,176.057537 C132.744624,175.634019 134.823158,175.369168 136.894369,175.194635 C141.600668,174.801629 146.31551,174.508706 151.027912,174.174286 C151.583245,174.134009 152.144681,174.131568 152.692692,174.046132 C158.189883,173.183229 163.759085,173.188111 169.286789,172.665731 C173.153375,172.298357 177.071222,172.480213 180.964659,172.380131 C182.068003,172.350839 183.175009,172.238552 184.27103,172.09087 C188.429318,171.533095 192.627883,171.278008 196.736131,172.095752 C202.03682,173.149055 206.643036,171.559946 210.988063,168.894346 C212.492956,167.971638 213.702485,166.52777 214.9291,165.210837 C215.99705,164.064775 216.540178,162.651421 216.510886,161.028138 C216.466947,158.662783 216.470609,156.298649 216.491357,153.935736 L216.491357,153.935736 Z" id="Fill-32" fill="#1A1918" sketch:type="MSShapeGroup"></path>
        <path d="M347.969584,139.504561 C347.548001,138.489904 347.673047,137.214438 347.687338,136.067591 C347.780229,127.936048 346.57979,119.940269 345.12926,111.990936 C342.889156,99.7543213 338.794803,88.3322904 330.866906,78.3893715 C326.565334,72.9981158 322.763945,67.1209682 319.362702,61.1116295 C309.555547,43.7981601 295.118129,31.4400729 278.111914,21.7793999 C266.368338,15.1055327 253.863768,10.0322503 241.19128,5.46272338 C232.127254,2.20081716 222.727391,0.082185852 212.988118,0.117913193 C200.672903,0.153640534 188.350543,0.321559036 176.038902,0.242958886 C167.492922,0.18579514 159.239906,1.67562525 151.008327,3.80140203 C134.538023,8.06724653 118.921602,14.6267863 103.601718,21.7901181 C94.5591282,26.0130898 86.2239396,31.6472915 78.7676436,38.5105136 C62.5259945,53.4838422 51.2433002,71.3903854 44.8731153,92.6052804 C40.2499974,107.982328 38.5386578,123.538012 40.8430713,139.354506 C41.4504361,143.534605 40.9431079,146.985866 39.0709952,150.358527 C37.2096007,153.709751 34.9516328,156.853757 32.7365377,159.994191 C29.8533413,164.084971 26.9058356,168.129306 23.8654389,172.105759 C20.3641595,176.675286 16.9057529,181.298404 13.1186548,185.628558 C8.49910965,190.901913 4.87278455,196.700461 2.11463384,203.138527 C0.692685677,206.450452 0.324694066,209.833831 0.531912643,213.302956 C0.996368074,221.398771 7.11288882,227.890429 15.212277,228.487076 C19.8032403,228.826486 24.4442219,228.412048 29.063767,228.312012 C34.6015049,228.194112 36.4700448,229.419559 38.4600577,234.817961 C39.1210135,236.604328 39.8998695,238.508595 39.8962968,240.355698 C39.8712876,246.25071 41.4004178,251.899202 43.2689577,257.272594 C48.2314854,271.584967 50.0214252,286.429677 51.7577739,301.31726 C53.1975858,313.650338 56.070064,325.501097 62.5867309,336.301472 C64.5088619,339.481206 66.7382479,341.467646 70.4431732,342.364402 C78.8498165,344.397288 87.2600325,344.275815 95.6738213,343.011067 C100.597049,342.271511 105.409522,340.810263 110.300595,339.870634 C116.081278,338.755941 118.63221,340.199325 121.14027,345.647745 C121.779789,347.037538 122.179935,348.577387 123.026673,349.820698 C128.882385,358.448851 133.405466,367.809414 138.23223,377.012777 C140.893917,382.10035 144.288014,386.823505 147.635666,391.500214 C148.353785,392.504152 150.279489,392.85428 151.712155,393.072217 C154.023714,393.422345 155.474244,391.675278 154.798998,389.649538 C152.24092,382.007459 149.940079,374.265345 147.05331,366.744739 C143.19833,356.694638 138.836022,346.833892 134.784541,336.855246 C133.780603,334.386487 132.86241,331.8034 132.465837,329.181013 C132.280055,327.959138 133.076774,326.07988 134.059276,325.279588 C137.321182,322.610755 140.99038,320.449251 144.259432,317.79471 C145.963626,316.408489 147.77143,314.725731 147.349847,312.024744 C147.042592,310.041877 144.055786,308.741401 140.486625,309.252302 C138.603794,309.530976 136.63879,309.859667 134.927451,310.642096 C125.49186,314.947241 116.274206,319.752568 106.684988,323.679003 C100.018266,326.412144 93.09788,328.963076 85.5951384,328.455748 C73.9265889,327.673319 69.6178716,323.964821 68.3745601,312.42489 C67.5063858,304.343366 65.7450279,296.515505 63.6514057,288.705509 C62.6581856,284.993438 61.847175,281.231349 61.0826099,277.462115 C60.3680631,273.942972 61.5577835,272.253068 65.0519174,272.260214 C74.0230527,272.278077 82.5940418,270.159446 91.0757125,267.608514 C93.9946363,266.729621 96.8671145,265.539901 98.9142911,262.992542 C99.8646384,261.813539 99.6895744,259.719917 98.4569811,258.980361 C93.8338632,256.200774 88.8141718,256.711675 83.8266351,257.229721 C79.6286725,257.662022 75.4557191,258.715979 71.2577565,258.805297 C53.5084136,259.201871 58.4495049,261.048974 54.2229604,244.732298 C53.8442506,243.267477 54.1943786,241.620446 53.8585416,240.134189 C52.347275,233.413876 50.8467267,226.689991 49.0710779,220.03756 C48.2171944,216.818526 45.8413263,214.92855 42.4222198,214.43194 C37.4739831,213.728111 32.6043465,212.817064 27.5132004,213.756693 C23.851148,214.424794 19.2351756,215.514478 17.1486989,211.316516 C15.4980957,208.004591 18.4563195,204.771267 20.0247498,201.795179 C21.0751336,199.805167 22.9472463,198.247454 24.3549035,196.42536 C28.1169925,191.559296 31.9040906,186.703951 35.5411339,181.741423 C39.4068322,176.464495 42.6330111,170.633793 46.9988921,165.817747 C56.0772094,155.799801 58.6067052,143.230922 60.5109724,130.819244 C61.900766,121.748072 63.5656601,112.644746 64.3623798,103.455674 C64.7339441,99.1969748 66.38812,95.3277038 67.8243591,91.3298143 C71.0005197,82.4872975 76.491812,75.1024561 81.5079306,67.3496232 C92.937107,49.6788804 109.596766,38.8749325 128.935976,32.4440112 C148.761077,25.8523168 169.640135,24.4303686 190.387002,23.3978485 C207.857671,22.5296741 224.678104,26.6919093 241.466381,31.2221361 C256.654074,35.3164894 269.523062,43.5623596 282.452786,51.8904028 C284.053371,52.9193502 285.464601,54.2948528 286.843677,55.6310554 C291.806204,60.4435282 296.336431,65.6632927 302.302897,69.4432453 C304.764511,71.0009574 306.493714,73.9163084 308.169326,76.4672405 C317.994345,91.4441418 324.48243,107.675073 327.680027,125.413697 C330.716851,142.212693 329.55214,158.350733 322.792527,173.995736 C319.441302,181.755714 315.843559,189.415656 312.117197,197.00057 C305.518358,210.45906 299.169609,224.064031 291.191694,236.800828 C284.45709,247.572621 277.783223,258.333696 268.236877,267.033304 C265.185763,269.812891 262.927795,273.592844 260.798445,277.201305 C259.687325,279.087709 259.480106,281.567186 259.162133,283.828727 C258.815578,286.286768 260.977082,288.219617 263.43155,287.826616 C265.085726,287.562234 266.729184,287.194242 268.376214,286.85126 C268.497687,286.704778 268.622733,286.558296 268.73706,286.404668 C269.030024,286.272477 269.33728,286.161722 269.608807,286.000949 C269.776726,285.893767 269.894626,285.707985 270.03039,285.554357 C269.708844,285.943785 269.387298,286.329641 269.062179,286.719069 C268.833524,286.761941 268.604869,286.804814 268.376214,286.85126 C266.850657,288.791254 265.18219,290.641931 263.938878,292.746271 C261.802383,296.365451 259.755207,300.081094 258.136758,303.953938 C256.93632,306.837134 260.555499,310.316977 263.599469,309.348766 C266.86852,308.301955 270.005381,306.865716 273.256569,305.768887 C273.656715,305.633123 274.46058,306.454852 274.95719,306.955034 C275.160836,307.165826 275.221573,307.8375 275.042936,308.055437 C273.603124,309.831085 272.209758,311.667471 270.580591,313.253765 C267.500894,316.254861 264.982117,319.573931 263.442268,323.63613 C262.413321,326.347835 262.609821,328.023447 264.556961,329.891987 C266.028928,331.292499 267.690249,332.078501 269.762435,331.246053 C270.834255,330.820898 271.895357,330.35287 272.977896,329.959869 C276.957921,328.516485 277.736777,328.977367 278.383442,332.642992 C278.944362,335.801289 279.065834,338.738077 276.557775,341.242563 C275.761055,342.046429 275.182273,343.096812 274.621353,344.107896 C273.320878,346.433746 273.860361,349.20976 276.314829,349.834989 C280.062627,350.781763 282.563541,352.310894 283.313815,356.394529 C283.596061,357.891504 285.33241,358.573896 287.040177,358.359532 C292.752979,357.662849 294.182072,356.001528 294.1785,351.324819 C294.171354,339.384742 294.182072,327.441092 294.174927,315.497442 C294.171354,301.628088 294.235663,287.758734 294.085609,273.892953 C294.032018,269.00188 295.539711,264.8325 298.512226,261.088274 C306.929588,250.470109 312.938926,238.347822 319.537766,226.643545 C325.768614,215.600224 330.931215,203.945965 336.361771,192.463198 C340.977743,182.709634 344.832723,172.688115 347.104982,162.069949 C348.716285,154.563635 351.202908,147.185939 347.969584,139.504561 L347.969584,139.504561 Z" id="Fill-8" fill="#1A1918" sketch:type="MSShapeGroup" transform="translate(175.012011, 196.617323) scale(-1, 1) translate(-175.012011, -196.617323) "></path>
    </g>
</svg>
