<?xml version="1.0" encoding="UTF-8" standalone="no"?>
<svg width="346px" height="433px" viewBox="0 0 346 433" version="1.1" xmlns="http://www.w3.org/2000/svg" xmlns:xlink="http://www.w3.org/1999/xlink" xmlns:sketch="http://www.bohemiancoding.com/sketch/ns">
    <!-- Generator: Sketch 3.3.3 (12072) - http://www.bohemiancoding.com/sketch -->
    <title>Clipboard</title>
    <desc>Created with Sketch.</desc>
    <defs></defs>
    <g id="Page-1" stroke="none" stroke-width="1" fill="none" fill-rule="evenodd" sketch:type="MSPage">
        <path d="M140.504047,216.296482 C140.901181,215.715674 141.245363,215.017381 141.351266,214.329016 C141.5912,212.715661 141.673937,211.075831 141.852647,209.128222 C141.798041,208.353811 141.766601,207.268313 141.639187,206.191088 C141.541559,205.355453 140.259148,204.708457 139.50294,205.183362 C138.764934,205.643375 137.777064,206.215909 137.576843,206.929095 C136.900061,209.359883 136.509546,211.876716 136.049533,214.367075 C135.984999,214.701329 136.09752,215.088534 136.198458,215.432716 C136.483071,216.380872 137.136686,216.973263 138.09808,217.163556 C139.05451,217.353849 139.946406,217.110605 140.504047,216.296482 L140.504047,216.296482 Z M139.438406,226.535907 C139.224947,226.827138 138.961846,227.113406 138.854289,227.44435 C138.06995,229.845353 137.237624,232.262903 137.44281,234.826069 C137.520582,235.848688 137.927644,236.907711 138.429025,237.816154 C138.877455,238.628623 139.810719,239.053886 140.76053,238.805678 C141.657389,238.572362 142.430145,237.945222 142.580725,236.988792 C142.804112,235.56573 142.84548,234.116193 143.045702,231.690369 C142.87692,230.694226 142.632021,228.744962 142.188555,226.843686 C141.960204,225.870709 140.045689,225.716819 139.438406,226.535907 L139.438406,226.535907 Z M153.237141,197.263858 C153.54161,197.106659 154.157167,196.972627 154.471564,196.590386 C155.277414,195.605826 156.040241,194.558386 156.659108,193.448067 C162.255381,183.403898 167.840071,173.349802 173.378429,163.274193 C175.840656,158.799823 178.203601,154.274155 180.554962,149.743524 C180.74691,149.372866 180.669138,148.629895 180.406037,148.327081 C180.106532,147.977934 179.472773,147.807498 178.968083,147.767784 C177.771718,147.671811 176.841764,148.30226 176.194767,149.233869 C175.158911,150.733048 174.159458,152.265322 173.239432,153.840618 C171.030377,157.623314 168.877582,161.439106 166.698312,165.240004 C161.977387,173.477215 157.236606,181.701188 152.548776,189.958256 C151.746235,191.373044 151.067799,192.885461 150.523395,194.421044 C150.050144,195.767988 151.643642,197.480627 153.237141,197.263858 L153.237141,197.263858 Z M160.812462,210.941798 C166.554351,201.357643 172.382285,191.826438 178.021581,182.184368 C181.349229,176.49543 184.431978,170.659222 187.508108,164.829633 C188.340434,163.247718 188.75246,161.442415 189.306792,159.878702 C188.946062,159.119184 188.84016,158.485425 188.467847,158.205777 C187.76459,157.676266 187.036512,158.175992 186.591392,158.69723 C185.52575,159.936617 184.440252,161.192552 183.602962,162.587483 C180.308408,168.086128 177.083353,173.62614 173.874846,179.176081 C166.635433,191.708953 158.995577,203.993616 151.165428,216.165758 C149.780424,218.313589 148.617154,220.60869 147.450574,222.887243 C146.917754,223.934683 147.486978,225.17407 148.723056,226.22151 C149.643082,226.99923 150.733545,227.020741 151.718105,226.209927 C155.201297,223.340637 157.767772,219.773054 158.914495,215.422788 C159.346378,213.779648 159.971863,212.345003 160.812462,210.941798 L160.812462,210.941798 Z M171.379523,232.092467 C170.353595,233.378187 169.417022,234.744988 168.536709,236.13661 C168.051875,236.897782 167.692801,237.764857 167.419771,238.630277 C167.174872,239.416271 168.357999,240.485222 167.214586,241.051137 C166.451758,241.425105 165.450651,241.405248 164.552136,241.406903 C157.410352,241.431723 150.260294,241.42014 143.113546,241.42014 L143.113546,241.531007 C137.618211,241.531007 132.119566,241.509495 126.622576,241.53928 C122.785274,241.557482 118.984375,241.761013 115.150382,242.310381 C110.096858,243.028531 104.932468,242.973925 99.8111002,243.212205 C98.9010026,243.258538 97.9511916,242.341821 97.9693935,241.529352 C98.0686769,236.770369 98.1729245,232.01304 98.3053023,227.255712 C98.354944,225.569549 98.8066834,225.051621 100.655009,224.970539 C107.149797,224.692546 112.525992,221.47411 117.883984,218.343374 C119.560219,217.367087 121.024649,215.758697 122.136623,214.128794 C126.256883,208.087401 130.519449,202.122125 133.658459,195.461865 C134.285599,194.133122 134.300491,192.427103 135.819527,191.584849 C135.91881,193.017839 136.011475,194.454138 136.12896,195.887128 C136.173637,196.428223 136.095865,197.133135 136.401989,197.464079 C136.981142,198.099493 137.74066,198.754763 138.536582,198.945056 C139.049546,199.065851 139.961298,198.524757 140.330302,198.011793 C140.836647,197.308535 141.194067,196.376926 141.276803,195.506542 C141.667318,191.500458 141.961858,187.4861 142.226614,183.468433 C142.271292,182.765175 142.186901,181.922921 141.831135,181.352042 C140.676139,179.492133 141.38436,177.916837 142.263018,176.262114 C145.181949,170.765124 147.983395,165.20691 150.97348,159.751288 C153.730248,154.714312 157.408697,150.426924 162.121348,147.087693 C162.232215,147.006612 162.480423,147.036397 162.622729,147.102586 C162.750143,147.163811 162.925544,147.410364 162.894104,147.461661 C162.611146,147.929947 162.29013,148.378377 161.969114,148.821843 C157.365675,155.22893 153.215629,161.912356 149.636464,168.944929 C148.971265,170.250505 148.309376,171.56601 147.793102,172.932811 C147.415825,173.943847 147.189128,175.032655 147.051786,176.10657 C146.934301,177.043143 147.223877,177.918492 148.201819,178.363612 C148.961337,178.711104 150.079929,178.383469 150.579656,177.529632 C151.415291,176.113189 152.189701,174.658687 152.91447,173.185984 C157.787629,163.303978 163.63211,154.016018 169.913439,144.979576 C170.763966,143.756736 171.713777,143.371186 173.062377,143.232189 C175.991236,142.926065 178.463392,143.771629 180.583092,145.800319 C182.169972,147.319355 183.801529,148.797022 185.439704,150.261452 C187.97474,152.520149 189.363053,155.576422 190.822518,158.488735 C193.532954,163.878167 195.864459,169.457893 198.396185,174.936681 C199.106061,176.475573 198.87771,177.68683 197.664798,178.88154 C191.363613,185.085097 186.566571,192.494946 181.309516,199.532483 C174.621126,208.47957 168.060149,217.522631 161.45284,226.527634 C160.476554,227.856376 159.434078,229.15037 158.613336,230.571777 C158.181453,231.319711 158.039147,232.299307 157.994469,233.186239 C157.946482,234.141014 158.456137,234.93859 159.321557,235.423424 C160.191941,235.909913 161.118586,235.92646 161.916163,235.353926 C164.924449,233.186239 167.694455,230.719047 168.856071,227.083621 C169.42695,225.298174 170.214598,223.729497 171.247145,222.208807 C178.135757,212.057081 184.991274,201.88219 191.886505,191.735428 C194.151821,188.401162 196.486635,185.118191 198.826413,181.83853 C200.386817,179.650987 200.949423,179.654296 202.258309,181.75083 C202.744797,182.526895 203.1138,183.377423 203.633383,184.127012 C205.71668,187.153501 204.834712,190.118764 203.022791,192.683585 C200.600276,196.117135 197.722713,199.226359 195.086739,202.512639 C187.16889,212.359896 179.265933,222.218735 171.379523,232.092467 L171.379523,232.092467 Z M178.228422,231.864115 C185.55719,222.015204 192.919052,212.192769 200.277605,202.368678 C200.93784,201.488366 201.586491,200.59647 202.321188,199.777382 C202.667025,199.395141 203.196537,199.175063 203.643312,198.880522 C203.830295,199.323988 204.154621,199.75918 204.181097,200.209265 C204.291963,202.219753 204.230738,204.243479 204.414413,206.247349 C204.503768,207.192196 205.288106,207.835883 206.246191,208.069199 C207.152979,208.290932 208.49165,207.265004 208.622373,206.224183 C208.738204,205.319049 208.763025,204.399023 208.776262,203.485616 C208.812666,201.468509 208.796119,199.451402 208.850725,197.435949 C208.858999,197.167884 209.165122,196.691324 209.337213,196.689669 C209.656575,196.68636 210.052054,196.889891 210.283715,197.133135 C210.785096,197.662646 211.243454,198.243454 211.645552,198.850737 C217.049877,207.053199 224.866789,211.808873 234.042227,214.711257 C241.79295,217.163556 249.828285,217.79897 257.82887,218.661081 C260.636935,218.96224 263.248088,217.110605 263.588961,214.752625 C263.89012,212.656091 261.960713,210.243505 259.478629,209.621329 C259.301574,209.576652 259.116245,209.566723 258.93257,209.546867 C255.666147,209.154697 252.399724,208.757564 249.131646,208.380287 C240.826592,207.417238 233.029537,205.085733 226.104521,200.199336 C223.953381,198.68361 222.234124,196.866724 220.85905,194.660979 C217.564496,189.375794 214.25836,184.098882 210.938985,178.830244 C209.464627,176.49543 208.286464,174.038166 207.53853,171.367443 C206.112158,166.259314 204.483911,161.200826 203.231286,156.051328 C202.020029,151.070612 199.011742,147.067837 196.09943,143.174274 C193.619,139.859863 190.110987,137.268567 186.872694,134.579642 C184.1242,132.296125 180.882597,131.286744 177.184291,131.427395 C173.31224,131.573011 169.496449,132.104177 165.803107,133.050678 C159.8097,134.586261 154.785961,137.723616 151.014848,142.886352 C148.617154,146.166013 146.712568,149.698846 144.668985,153.163836 C141.510119,158.521829 138.266862,163.840109 136.249755,169.795457 C135.549807,171.865515 134.578485,173.882622 133.456582,175.759078 C131.750563,178.610166 130.509521,181.63169 129.341286,184.724367 C126.278394,192.834165 122.290512,200.412796 116.323581,206.843049 C114.281653,209.042176 112.067633,210.910358 109.213236,211.837003 C105.910409,212.907609 102.56125,213.82929 99.2220188,214.790684 C98.5932241,214.972703 97.7559343,214.290957 97.7079473,213.572808 C97.6152828,212.295361 97.5689506,211.012951 97.5193089,209.730541 C97.4150614,206.983701 97.4862144,204.217004 97.1949832,201.49002 C96.0002732,190.363663 96.1591266,179.172772 95.5386055,168.019939 C95.3665143,164.914024 95.5137847,161.788252 95.5137847,158.670754 L95.2539932,158.670754 C95.2539932,153.354129 95.2556479,148.037504 95.2523384,142.720879 C95.2506837,141.038026 95.2341365,141.041336 97.4382275,141.019824 C99.8557777,140.991694 101.258983,139.474313 100.954514,137.210652 C100.883361,136.667903 100.860195,136.065584 100.603713,135.607225 C98.4393349,131.751721 98.4360254,127.537141 98.444299,123.309324 C98.4459538,122.58621 98.3532893,121.848204 98.1795434,121.148256 C97.8105401,119.659005 95.9092635,118.846536 94.6616023,119.733468 C93.6356741,120.463201 92.5783061,121.298836 91.8866319,122.321455 C89.007414,126.56251 86.2291341,130.879682 83.4806392,135.210092 C82.7988934,136.282352 82.2842745,137.478717 81.8143332,138.666808 C81.1358968,140.400958 82.1270759,142.489218 83.9274144,143.111394 C84.599232,143.34471 85.363714,143.321544 86.0851732,143.384423 C86.9472839,143.460541 87.3907496,143.965231 87.4370819,144.771081 C87.4949972,145.868163 87.4685216,146.970208 87.4784499,148.067289 C87.5562219,158.520174 87.627375,168.971405 87.7200395,179.42098 C87.7365867,181.254413 87.8193229,183.087846 87.9301893,184.916315 C88.4481176,193.691311 88.9461892,202.464652 89.5468536,211.231375 C89.7388015,214.008 89.5617461,216.359361 86.1331602,216.847504 C85.9627237,216.87067 85.8071797,217.011322 85.6549452,217.115569 C84.1772776,218.138188 83.4856034,219.615856 83.5551018,221.348351 C83.6212907,223.069263 84.963271,223.792377 86.3780592,224.341745 C86.7189321,224.477432 87.0730428,224.624702 87.4271535,224.659451 C89.0041045,224.821614 89.5849123,225.721784 89.5998048,227.242474 C89.6527559,231.827711 89.8281565,236.409639 89.8331207,240.993222 C89.8347754,243.516674 90.369251,246.131137 88.8617983,248.5007 C88.6218635,248.876322 88.6599221,249.647423 88.8866192,250.064413 C90.7018503,253.405299 89.646137,256.876908 89.4376419,260.305494 C89.3913097,261.025298 89.1116615,261.736829 89.0918048,262.454979 C89.0636745,263.475943 90.3742151,264.889076 91.5374854,265.155487 C92.5336286,265.383838 93.4023582,264.95361 93.946762,264.204021 C94.7989443,263.024203 95.6958042,261.799708 96.1839475,260.449454 C96.8044686,258.731852 97.6318301,258.220543 99.4586442,258.609403 C100.540833,258.842718 101.699139,257.694341 101.826553,256.718054 C101.995335,255.450536 102.028429,254.166471 102.101237,252.887371 C102.162462,251.813455 102.749888,251.194589 103.779126,251.075449 C105.769758,250.850407 107.763699,250.636947 109.764259,250.56083 C110.103477,250.547592 110.722343,251.212791 110.77364,251.619853 C110.925874,252.882406 110.793497,254.179709 110.917601,255.450536 C111.025158,256.526106 111.248545,257.60995 111.57949,258.639188 C111.941874,259.771018 112.949601,260.275709 114.190643,260.148295 C115.390317,260.029155 116.166382,259.229924 116.249118,257.987227 C116.287177,257.439513 116.192858,256.876908 116.280558,256.340777 C116.588336,254.422953 115.446578,252.369442 116.823307,250.555866 C118.813939,250.444999 120.802916,250.327514 122.795202,250.233195 C123.157587,250.213338 123.533209,250.236504 123.888974,250.310967 C124.663384,250.471475 125.202824,250.913286 125.199515,251.758849 C125.194551,253.408608 125.04728,255.064986 125.154837,256.703162 C125.212753,257.570237 125.553625,258.483644 125.997091,259.243161 C126.556388,260.20952 127.433391,260.935943 128.671124,260.856516 C129.730146,260.787018 130.628661,259.479787 130.671684,257.964061 C130.709742,256.679996 130.627006,255.394276 130.708087,254.11352 C130.764348,253.208387 130.850394,252.250302 131.206159,251.437833 C131.460986,250.85868 132.179136,250.085925 132.698719,250.077651 C136.358966,250.013117 140.019214,250.095853 143.679461,250.226576 C144.056738,250.239814 144.645819,250.845442 144.720282,251.250849 C144.884099,252.137781 144.750067,253.076009 144.788125,253.991071 C144.834457,254.904478 144.870861,255.826159 145.037988,256.723018 C145.312672,258.20565 146.694366,259.229924 148.22333,259.191865 C149.444516,259.16208 150.281805,258.137806 150.339721,256.497976 C150.400946,254.848217 150.359577,253.200113 150.419147,251.552009 C150.453897,250.709755 151.008229,250.216648 151.817388,250.165351 C153.094835,250.08427 154.380554,250.057794 155.659655,250.082615 C157.160489,250.1124 157.69331,250.593924 157.805831,251.96569 C157.911733,253.243136 157.934899,254.527201 158.052385,255.804647 C158.206274,257.4875 158.843342,259.006536 159.907329,260.307148 C160.52785,261.063357 161.4214,261.296673 162.391068,261.076594 C163.433544,260.843279 164.479329,259.719722 164.44127,258.784803 C164.41314,258.064999 164.222846,257.351813 164.120254,256.638627 C163.910104,255.197364 163.63211,253.757755 163.522899,252.309872 C163.410378,250.847097 163.994495,250.168661 165.298416,250.138876 C167.130195,250.099162 168.965283,250.11571 170.795406,250.162042 C171.87594,250.191827 172.388904,250.77098 172.395523,251.911084 C172.410416,254.661234 172.390559,257.411383 172.407106,260.161533 C172.41538,261.500204 172.855536,262.651891 173.896357,263.571917 C175.057972,264.601154 177.142923,264.129558 177.445738,262.651891 C177.665816,261.597832 177.697256,260.487513 177.682363,259.405324 C177.645959,256.497976 177.541712,253.590628 177.462285,250.684934 C180.455679,249.48526 183.594688,250.327514 186.654271,250.037938 C187.743079,249.935345 188.851743,250.001534 189.950479,250.037938 C191.469515,250.092543 191.901398,250.5327 191.949385,251.977273 C192.012264,253.991071 191.94442,256.023071 192.194284,258.012048 C192.325007,259.033012 192.905814,260.05894 193.493241,260.942562 C194.006205,261.716972 194.924576,262.163747 195.890935,261.864243 C196.789449,261.584594 197.567169,260.944217 197.673071,259.961311 C197.808759,258.695448 197.765736,257.408074 197.745879,256.128973 C197.626739,249.207267 196.989671,250.023045 203.840224,250.064413 C205.619051,250.074341 207.751989,249.299931 209.075767,250.724648 C209.949461,251.66453 209.904783,253.428465 210.34494,254.798576 C210.737109,256.016452 211.193813,257.216126 211.696848,258.389324 C211.905344,258.875813 212.276001,259.311005 212.640041,259.706484 C213.275454,260.399813 214.88219,260.643057 215.676457,259.961311 C216.306907,259.418562 216.758646,258.564725 217.046568,257.762184 C217.203766,257.333611 216.79174,256.724673 216.722242,256.188543 C216.485617,254.381585 214.638946,252.50182 215.620197,250.989403 C216.833109,249.122876 219.356561,250.397012 221.287623,250.132257 C221.830372,250.061104 222.389668,250.109091 222.939036,250.145495 C224.56232,250.248087 226.452013,249.897286 227.742697,250.615436 C229.314684,251.492439 228.287101,253.635305 228.614736,255.190745 C228.874528,256.438406 229.00856,257.747292 229.500013,258.900634 C229.913694,259.866992 230.678176,260.729103 231.444312,261.478692 C232.508299,262.521168 234.664403,261.786471 234.925849,260.318731 C235.081393,259.430145 235.142618,258.496881 235.056573,257.598367 C234.867934,255.597807 234.507205,253.610484 234.343387,251.60827 C234.310293,251.202863 234.781889,250.423488 235.114488,250.365573 C238.743295,249.736778 242.401888,249.702029 246.055516,250.132257 C246.285523,250.160387 246.652871,251.010915 246.566826,251.388192 C246.237536,252.806289 245.7345,254.184673 245.319164,255.586224 C244.930305,256.893455 245.077575,258.131188 245.931412,259.228269 C246.495672,259.949728 247.063242,260.674497 247.692037,261.336386 C248.676597,262.368933 250.159229,262.276269 250.983281,261.050119 C253.751633,256.934823 256.754955,253.029677 260.272896,249.510081 C261.148244,248.631423 261.811788,247.449951 262.314824,246.296609 C262.945273,244.855345 262.662316,243.407463 261.561925,242.217717 C261.068818,241.683241 260.511176,241.195098 259.935332,240.749978 C257.176909,238.630277 254.448271,236.470864 251.62035,234.448792 C250.294916,233.500636 248.813939,232.734499 247.321379,232.070956 C245.921484,231.44878 244.453744,232.009731 243.477458,233.333509 C242.612038,234.501744 242.65506,235.713001 243.454292,236.899437 C243.657823,237.203906 243.954018,237.443841 244.155894,237.746655 C244.356116,238.042851 244.490148,238.383724 244.653966,238.709704 C244.337914,238.85201 244.015243,239.133313 243.704155,239.113457 C242.065979,239.024101 240.384781,239.040649 238.799556,238.681574 C236.246318,238.099111 233.664951,238.013066 231.148117,238.401926 C226.594319,239.108492 222.014046,238.944675 217.445356,239.207776 C214.668731,239.364974 212.340536,239.159789 211.552888,235.931424 C211.513174,235.77919 211.293096,235.683216 211.172301,235.547529 C210.591494,234.887294 209.264406,234.971685 208.787845,235.769261 C208.324523,236.548636 207.897605,237.366069 207.591481,238.216597 C207.161253,239.434473 206.247846,239.874629 205.091194,240.007007 C204.545136,240.068232 203.992458,240.104636 203.444745,240.084779 C199.628954,239.967294 195.811508,240.804583 191.992407,240.098017 C191.883196,240.074851 191.70614,239.773691 191.73758,239.729013 C193.839078,236.737274 195.947195,233.750499 198.083443,230.781926 C199.579312,228.69863 201.095038,226.630226 202.638895,224.57837 C204.07354,222.667165 204.085123,222.688676 205.981435,224.707438 C206.352093,225.102917 206.764119,225.47523 207.20593,225.784663 C208.066386,226.385327 209.590386,226.069275 210.07191,225.064859 C210.444223,224.278865 210.745383,223.32409 210.652718,222.491764 C210.535233,221.427777 210.172849,220.299256 209.597005,219.400742 C208.119337,217.087439 208.953318,215.311921 210.52034,213.49669 C211.592601,212.252339 212.494425,210.855752 213.427689,209.493915 C213.728848,209.053759 214.038281,208.519284 214.059793,208.014593 C214.07965,207.539688 213.801656,206.99032 213.495532,206.596495 C213.341643,206.397929 212.797239,206.346632 212.494425,206.444261 C209.899819,207.268313 208.286464,209.28542 206.72937,211.340586 C200.198179,219.955074 193.547847,228.485171 187.235079,237.260167 C185.087248,240.250251 182.850063,241.918212 179.10377,241.398629 C177.13465,241.123945 175.112578,241.191789 173.115328,241.105743 C172.958129,238.934746 174.990129,237.855867 175.660292,236.058838 C176.222897,234.548076 177.252135,233.17962 178.228422,231.864115 L178.228422,231.864115 Z" id="Fill-5" fill="#1A1918" sketch:type="MSShapeGroup"></path>
        <path d="M287.366533,332.693645 C285.043412,333.899881 282.874625,335.804677 281.298801,337.888175 C280.433723,339.041613 280.303758,341.571865 280.986074,342.879636 C281.948625,344.699143 283.983387,345.954116 285.465798,347.35936 C289.084505,346.413054 292.268643,345.970362 295.079132,344.69102 C296.403148,344.089933 297.674366,341.945514 297.824638,340.402182 C298.421664,333.843021 292.930651,329.793805 287.366533,332.693645 L287.366533,332.693645 Z M282.549713,313.747214 C284.539799,314.624476 286.822305,314.835669 289.567812,315.485493 C291.208617,314.872221 293.775422,314.66509 295.058825,313.276091 C297.585015,310.559015 297.040788,303.378459 294.478044,300.762918 C292.163046,298.407306 289.506891,299.66634 286.984761,300.576093 C285.29928,301.185303 283.50008,301.61175 281.981117,302.501197 C279.869189,303.731801 279.182812,305.916834 279.268101,308.276508 C279.361514,310.656488 280.389048,312.792785 282.549713,313.747214 L282.549713,313.747214 Z M138.463424,360.465498 C136.790127,359.913148 134.97062,359.547622 133.212033,359.519192 C126.41325,359.413596 119.618528,359.478578 112.827867,359.478578 L112.827867,359.576052 C106.033144,359.576052 99.2384222,359.511069 92.4437,359.616666 C89.7428689,359.665402 87.0136081,359.953762 84.3615139,360.473621 C81.1083325,361.099077 79.0492027,363.982671 79.0167115,367.398308 C78.9801589,370.846437 81.1083325,372.94618 85.0235221,373.307645 C85.9251529,373.396996 86.8349065,373.429487 87.7365373,373.429487 C100.424351,373.445733 113.108103,373.49447 125.795917,373.429487 C128.496748,373.413242 131.355974,373.421364 133.861857,372.576593 C136.298697,371.748067 138.601511,370.1032 140.534738,368.328369 C142.776631,366.289546 141.407939,361.419927 138.463424,360.465498 L138.463424,360.465498 Z M237.886496,356.98894 C237.009234,356.75744 236.091358,356.513756 235.201911,356.546247 C228.821452,356.789931 222.241983,356.184783 216.125515,357.590027 C204.375885,360.282735 192.528781,359.478578 180.206493,360.225876 C177.525969,360.047174 174.345893,359.718201 171.161755,359.649157 C166.141865,359.531376 161.113852,359.372982 156.122391,359.693832 C153.994217,359.83192 151.772632,360.863515 149.904388,362.000707 C148.974327,362.565242 148.227029,364.311644 148.308257,365.452897 C148.389485,366.586028 149.400774,368.165913 150.399878,368.588298 C152.430578,369.437131 154.717147,369.839209 156.934671,370.070709 C164.631024,370.874866 172.327377,371.679024 180.044037,372.202944 C185.949313,372.600961 191.943939,373.189865 197.788294,372.609084 C206.378155,371.764313 214.886788,370.046341 223.399483,368.494886 C227.416207,367.767895 231.359827,366.602274 235.319692,365.574739 C236.631524,365.22952 238.13018,364.985836 239.129285,364.185741 C240.091837,363.418136 241.046266,362.000707 241.078757,360.843208 C241.135616,358.942473 239.827846,357.525045 237.886496,356.98894 L237.886496,356.98894 Z M243.596825,325.569949 C242.406835,324.944494 241.107187,324.197196 239.827846,324.148459 C226.624234,323.636723 213.367824,322.877241 200.460695,326.699018 C195.603261,328.132693 190.96108,329.420156 185.754366,328.108324 C182.31436,327.239185 178.57381,327.4585 174.963226,327.426009 C161.316922,327.296044 147.642188,325.448107 134.052743,328.668797 C130.62086,329.472955 126.486355,329.724761 123.249419,328.595692 C109.416291,323.786995 96.2086178,329.042446 82.7694451,330.390831 C80.9093239,330.573594 79.2522727,332.246891 79.5528163,334.147626 C79.8086845,335.743756 80.9702449,337.672921 82.3145683,338.485201 C84.1665667,339.606148 86.5465471,340.227542 88.7397031,340.349384 C93.2884712,340.613375 97.8697304,340.54027 102.42256,340.398121 C108.335958,340.219419 114.009734,340.203173 119.947501,342.018619 C124.947084,343.561951 130.966079,343.545706 136.13218,342.404452 C143.385841,340.796138 150.57858,340.580884 157.864732,340.548392 C163.436972,340.515901 168.810205,339.768604 173.627025,336.775352 C176.985803,334.683731 180.141511,334.2451 183.873937,336.259554 C186.168628,337.498281 189.092836,338.083123 191.728685,338.075 C200.363222,338.030324 208.993697,337.58357 217.624172,337.287088 C217.628233,337.392685 217.632294,337.514527 217.636356,337.624184 C224.029,337.400807 230.41352,337.185553 236.806164,336.958115 C240.173065,336.832211 242.971369,335.634098 245.002069,332.787057 C246.468235,330.727927 245.814349,326.73151 243.596825,325.569949 L243.596825,325.569949 Z M252.146072,288.030429 C241.184353,288.079165 230.230757,288.44063 219.281223,288.956428 C213.380009,289.236664 207.511286,290.52819 201.60601,290.650032 C184.698402,290.987128 167.778609,291.084602 150.866939,290.970882 C146.854276,290.938391 142.788815,289.845874 138.833011,288.907691 C132.156069,287.307499 125.637522,286.097202 118.603178,287.348113 C111.897806,288.546226 104.948751,288.416262 98.5398614,288.834586 C93.9951548,288.351279 89.9134477,287.612104 85.8358021,287.583675 C83.6995057,287.567429 81.3885691,288.456876 79.4594041,289.500655 C76.6610994,291.019619 76.57581,296.201966 79.2035359,297.684377 C84.0000493,300.385208 88.8980977,302.809863 94.6652858,302.517443 C102.426621,302.127548 110.183895,301.66861 117.953354,301.554891 C123.39563,301.469601 129.187186,300.815716 134.231445,302.367171 C140.985553,304.45473 147.650311,304.864932 154.49377,304.824318 C170.946501,304.690292 187.403294,304.495344 203.860087,304.263845 C207.056409,304.215108 210.342081,304.353195 213.424684,303.67088 C223.354807,301.489908 233.374281,301.461479 243.442492,301.709224 C246.622568,301.790452 249.843258,301.66861 252.98272,301.201549 C255.342394,300.848207 256.987261,299.093682 257.827971,296.811176 C259.371303,292.583258 256.682656,288.00606 252.146072,288.030429 L252.146072,288.030429 Z M323.297739,175.781455 C322.725082,188.06719 320.31261,200.247328 320.45882,212.626476 C320.556294,220.854872 320.097356,229.08733 322.509827,237.128902 C323.013441,238.846874 323.086546,240.739487 323.086546,242.550871 C323.029687,264.490554 323.898826,286.487097 322.566687,308.357736 C321.267039,329.842542 321.222364,351.286734 321.368574,372.759356 C321.417311,380.500385 322.465152,388.23329 322.944397,395.966196 C323.110915,398.606106 321.567583,400.238789 318.980471,400.559639 C317.61584,400.734279 316.234964,400.953595 314.882518,400.904858 C296.545297,400.181929 278.3949,402.825901 260.155153,403.914356 C245.599095,404.783495 231.091774,406.639555 216.556023,407.947326 C212.462132,408.316913 208.33575,408.398141 204.225613,408.45094 C179.987178,408.77179 155.752804,408.85708 131.522491,409.417553 C121.040018,409.657175 110.577851,410.88778 100.099439,411.545726 C90.9491047,412.126507 81.8353231,412.179305 72.9043044,409.515026 C69.0662814,408.381896 68.6885712,408.284422 69.9679122,403.946847 C70.8654816,400.921104 70.7395782,398.528939 68.1727734,396.705371 C65.7034422,394.958969 62.7873569,395.003644 60.3911309,396.534792 C57.7634051,398.216211 55.5580649,400.575885 53.1699617,402.639076 C51.8175155,403.812821 50.6315867,405.567346 49.0760704,405.997854 C47.6220892,406.412117 45.5548366,405.770416 44.1820834,404.917522 C43.4550928,404.462645 43.0733212,402.277612 43.5241366,401.351612 C45.1080826,398.086247 47.2403176,395.080811 48.9257986,391.86012 C49.9695784,389.861912 50.7737357,387.693124 51.3667001,385.516214 C51.9921557,383.225584 49.924903,379.830254 47.5043086,378.875825 C45.1243282,377.937641 42.9230494,378.636202 41.2863052,380.39885 C39.121579,382.738216 37.2573964,385.374065 35.1901437,387.810905 C31.9044711,391.652989 30.9175509,392.136296 30.2352357,390.389894 C29.2726839,387.928685 30.5926389,386.080748 31.6770327,384.070355 C35.8196607,376.447107 40.0800694,368.880719 43.8449872,361.074708 C45.4005034,357.886509 46.147801,354.202819 46.614862,350.661279 C46.8057478,349.199175 45.5629594,347.278132 44.4663814,345.998791 C43.4550928,344.837231 39.5195962,345.755107 38.2361938,347.334992 C36.5141601,349.438797 35.0155035,351.741611 33.3950049,353.938828 C32.8548387,354.673942 32.2821813,355.384687 31.6242345,356.006081 C31.4252259,356.17666 30.7469721,356.123862 30.5235951,355.912669 C29.8737711,355.323766 28.8462369,354.596775 28.8624825,353.951013 C28.9274649,352.204611 29.0980437,350.299814 29.8615869,348.78085 C34.1463639,340.195051 38.674825,331.731093 42.9920932,323.1656 C44.8440916,319.498156 46.4564674,315.712931 48.0404134,311.923645 C49.0070266,309.580217 48.1053958,307.452044 46.7001514,305.535063 C44.8847056,303.057609 41.7777346,302.290004 39.5764558,304.125757 C37.1477386,306.132089 35.0601789,308.552683 32.7289353,310.688979 C32.1887691,311.192593 30.9500421,311.700268 30.5723319,311.436277 C29.9428149,311.001707 29.4513855,309.945743 29.4229557,309.129402 C29.1955173,301.916355 27.2907207,294.683002 29.5894731,287.486201 C28.7325177,267.865578 30.2839725,248.200279 28.2492111,228.583716 C27.3516417,219.965426 27.3678873,211.237477 27.2947821,202.554204 C27.1729401,188.85104 27.1932471,175.155999 25.3168803,161.521879 C24.9554157,158.877908 25.0975647,155.969945 25.8245553,153.415325 C30.2839725,137.722075 29.5326135,121.829817 28.3710531,105.831962 C27.6806151,96.2795491 27.8593167,86.6499696 27.8308869,77.0569428 C27.8227641,73.8362525 29.8209729,71.8664735 32.9279439,71.8421051 C39.3165262,71.7852455 45.782275,71.4156581 52.1058749,72.1629557 C57.3491423,72.7884113 63.0472865,71.8664735 67.782879,75.2780495 C66.5685204,80.0826858 65.366346,84.8832606 64.1276189,89.6878968 C63.7905227,91.0037905 63.2422337,92.2831315 62.9782427,93.6152707 C62.4502607,96.2795491 63.9895313,99.2078185 66.5725818,100.361256 C72.0798402,102.81028 77.895765,103.646929 83.9106985,103.581946 C96.261416,103.439797 108.612133,103.415429 120.95879,103.456043 C129.175002,103.480411 137.391214,103.691604 145.611488,103.82563 C145.611488,104.065253 145.607426,104.312998 145.603365,104.552621 C158.404898,104.552621 171.218615,104.349551 184.016086,104.617603 C195.424559,104.849103 206.808663,105.68169 218.217136,106.112199 C223.241088,106.307146 228.342206,106.705163 233.293053,106.063462 C250.594617,103.809385 267.969286,104.329244 285.331772,104.312998 C289.961768,104.304876 294.258729,103.204236 298.710023,102.030492 C307.137428,99.8292127 307.937524,94.1229457 307.929401,86.2113384 C307.929401,84.8710764 307.133367,83.5145688 307.178042,82.1783682 C307.295823,78.7424238 302.649581,75.9197507 305.906824,72.1304645 C309.939794,72.0654821 313.984949,71.8339823 318.001673,72.0654821 C319.000778,72.1223417 320.531926,73.5357089 320.771548,74.5794887 C321.807205,78.998292 322.944397,83.4983232 323.163713,88.0105386 C324.564896,117.252619 324.666431,146.535313 323.297739,175.781455 L323.297739,175.781455 Z M132.862753,78.5799678 C133.08613,78.9333096 133.386674,79.2582216 133.528823,79.648116 C133.670972,80.033949 133.670972,80.480703 133.72377,80.9030886 C133.670972,81.3173514 133.670972,81.760044 133.528823,82.145877 C133.386674,82.5154644 133.08613,82.8241308 132.862753,83.1693498 C132.42006,82.714473 131.542798,82.1783682 131.615903,81.8290878 C131.843342,80.7081414 132.42006,79.648116 132.862753,78.5799678 L132.862753,78.5799678 Z M167.98574,78.5231082 C168.428433,78.003249 169.606239,77.6458458 170.223572,77.8570386 C170.88558,78.084477 171.571957,79.0064148 171.750658,79.7455896 C172.518263,83.0068938 170.694694,85.151313 167.051618,84.5949012 C166.787627,83.8963404 165.98347,82.8322536 166.141865,81.9306228 C166.353058,80.7162642 167.153153,79.4937828 167.98574,78.5231082 L167.98574,78.5231082 Z M168.5056,20.8674734 C168.82645,20.0714389 170.865273,19.5272113 172.071509,19.6125007 C180.243046,20.1445441 188.398337,20.8349822 196.545506,21.574157 C198.722416,21.7691042 199.920529,24.1409618 199.571249,26.8011788 C199.270705,29.047133 197.739557,29.9243954 195.855068,29.9975006 C191.765238,30.1518338 187.659162,30.042176 183.56121,30.042176 L183.56121,30.3386582 C179.459196,30.3386582 175.365304,30.4239476 171.26329,30.3021056 C169.370678,30.2371232 167.522741,29.2826942 167.43339,27.2438714 C167.344039,25.1156978 167.701442,22.8250682 168.5056,20.8674734 L168.5056,20.8674734 Z M202.978763,63.1182179 C208.912469,63.0329285 214.83399,63.0938495 219.0416,63.0938495 C237.590014,63.9954803 254.412333,64.8077603 271.234652,65.6403473 C273.671492,65.7621893 275.568166,66.8059691 276.745972,69.0234935 C278.224321,71.8461665 279.804206,74.6201027 281.205389,77.4712056 C282.468485,80.0501946 281.550608,81.881886 278.955374,82.6373064 C271.376801,84.8304624 263.57079,85.0457166 255.902867,84.1319016 C249.477732,83.3561742 243.284097,83.811051 236.907699,84.2253138 C225.105271,84.988857 213.233798,84.7817256 201.394817,84.8751378 C199.441284,84.8832606 197.861399,83.7623142 197.796417,81.6341406 C197.662391,77.089434 197.585224,72.5366045 197.772048,67.9918979 C197.910136,64.5884447 199.522512,63.1669547 202.978763,63.1182179 L202.978763,63.1182179 Z M344.555107,176.187595 C342.256354,164.433903 342.264477,152.562431 342.248232,140.686897 C342.211679,124.689042 342.495977,108.691188 342.203556,92.6973943 C342.065469,84.9726114 341.419706,77.1666006 340.087567,69.5677211 C339.02348,63.4634369 335.518492,58.7197216 328.618173,57.586591 C324.130326,56.8392934 319.691216,55.7630224 315.23586,54.7964092 C311.271934,53.9475766 307.555753,53.1840334 303.238484,54.27655 C297.658121,55.69804 295.432473,53.7851206 292.784441,48.0463623 C292.020897,46.3974339 291.208617,44.7363213 290.69282,42.9939807 C288.349392,35.1432945 282.850256,32.2515776 275.052368,32.7308228 C272.319046,32.8973402 269.569478,32.9541998 266.832094,32.9541998 C264.561772,32.946077 262.210221,33.0963488 260.017065,32.6333492 C240.908178,28.6085018 240.173065,28.5150896 225.101209,29.67665 C224.20364,29.7416324 223.13143,29.900027 222.408501,29.5182554 C221.311923,28.945598 219.732038,28.0277216 219.614258,27.097661 C219.155319,23.4911378 219.260916,19.8155707 219.025355,16.1724949 C218.66389,10.3849999 216.515409,5.59254784 211.203098,2.58711182 C210.086213,1.95759481 209.237381,0.869139606 208.258583,0 L205.517138,0 C204.343394,2.55462062 201.902492,2.54649782 199.705275,2.57898902 C191.48094,2.69270822 183.256605,2.58711182 175.03227,2.68458542 C170.008318,2.74956782 164.951875,2.68458542 159.984782,3.30191822 C154.725269,3.94768083 150.907553,8.32993146 150.444554,13.4472955 C150.241484,15.7176181 150.208993,18.0244933 150.34708,20.2948159 C150.712606,26.143232 150.20087,28.0683356 142.723832,28.2795284 C136.355557,28.4501072 130.027896,29.5385624 123.659621,29.900027 C116.357223,30.3183512 109.018273,30.0706058 101.736183,30.6757544 C93.5768306,31.341824 86.7130645,34.4528564 83.5004971,42.8477703 C82.6882171,44.9678211 81.5550865,46.9741527 80.5722277,49.0414054 C78.8258257,52.7494636 75.8406966,54.2440588 71.8117878,54.4430674 C55.8910997,55.1944264 39.9825958,56.0960572 24.0659691,56.9448898 C22.2424004,57.0464248 20.309174,56.855539 18.623693,57.3957052 C13.2504608,59.1136774 8.52299115,61.6358068 7.45078154,68.0203277 C6.93498373,71.1638513 5.74905493,74.2342697 5.55410772,77.3859162 C4.57124892,92.8679731 2.4349525,108.256618 2.7111277,123.852394 C3.01573271,141.21894 2.3902771,158.589548 2.4024613,175.952033 C2.4633823,236.743069 2.5811629,297.534105 2.8167241,358.32514 C2.8492153,366.529168 3.55589891,374.733197 4.24633691,382.912856 C4.60374012,387.092037 4.81493292,391.141253 2.8979521,394.971153 C-0.988807723,402.73655 0.0752790843,411.021806 0.310840286,419.193343 C0.388006887,422.093182 2.4511981,424.363505 5.37540612,424.850873 C20.2157618,427.287713 34.9423983,430.532772 50.0914204,430.549017 C103.571936,430.581508 157.052452,430.70335 210.528906,430.650552 C230.636897,430.634307 250.793626,430.96328 270.836635,429.712369 C281.485626,429.046299 291.834073,429.151896 301.975389,431.808051 C309.484918,433.77783 316.283701,432.811217 323.399274,430.581508 C333.74366,427.33645 339.750471,420.574219 340.217532,409.835877 C340.518075,403.098014 343.576309,396.429195 340.952645,389.597921 C344.173335,381.645699 342.175126,373.372628 342.414749,365.237643 C342.784336,352.456417 342.203556,339.589902 343.393546,326.885843 C344.754115,312.281048 344.697256,297.708745 344.819098,283.091766 C344.892203,273.957678 345.196808,264.811405 345.204931,255.673255 C345.245545,232.36488 345.196808,209.060567 345.127764,185.756253 C345.119641,182.559931 345.164317,179.298627 344.555107,176.187595 Z" id="Fill-42" fill="#1A1918" sketch:type="MSShapeGroup"></path>
    </g>
</svg>
